G75*
%MOIN*%
%OFA0B0*%
%FSLAX25Y25*%
%IPPOS*%
%LPD*%
%AMOC8*
5,1,8,0,0,1.08239X$1,22.5*
%
%ADD10C,0.07099*%
%ADD11R,0.07887X0.07099*%
%ADD12R,0.07099X0.07887*%
%ADD13R,0.04737X0.18910*%
%ADD14R,0.07099X0.14186*%
%ADD15C,0.08200*%
%ADD16R,0.05524X0.06312*%
%ADD17R,0.06312X0.05524*%
%ADD18C,0.00800*%
%ADD19R,0.05800X0.03300*%
%ADD20R,0.03300X0.05800*%
%ADD21C,0.05162*%
D10*
X0357287Y0291685D03*
X0357287Y0299559D03*
X0359059Y0327787D03*
X0351185Y0327787D03*
X0324059Y0327787D03*
X0316185Y0327787D03*
D11*
X0354122Y0228134D03*
X0354122Y0217110D03*
X0381122Y0198134D03*
X0381122Y0187110D03*
X0354122Y0183634D03*
X0354122Y0172610D03*
X0179622Y0127134D03*
X0179622Y0116110D03*
X0159622Y0130610D03*
X0159622Y0141634D03*
X0112622Y0239110D03*
X0112622Y0250134D03*
D12*
X0143610Y0120122D03*
X0154634Y0120122D03*
X0135634Y0188622D03*
X0124610Y0188622D03*
X0125110Y0257622D03*
X0136134Y0257622D03*
X0131134Y0315122D03*
X0120110Y0315122D03*
X0191610Y0322122D03*
X0202634Y0322122D03*
X0215110Y0340622D03*
X0226134Y0340622D03*
X0284610Y0321622D03*
X0295634Y0321622D03*
D13*
X0133559Y0146555D03*
X0125685Y0146555D03*
D14*
X0116236Y0167028D03*
X0143008Y0167028D03*
D15*
X0227122Y0107622D03*
X0237122Y0106622D03*
X0247122Y0107622D03*
X0257122Y0106622D03*
X0267122Y0107622D03*
X0277122Y0106622D03*
D16*
X0354217Y0200622D03*
X0366028Y0200622D03*
X0366028Y0240622D03*
X0354217Y0240622D03*
X0251028Y0340622D03*
X0239217Y0340622D03*
X0143028Y0326622D03*
X0131217Y0326622D03*
X0137028Y0240622D03*
X0125217Y0240622D03*
X0124717Y0200622D03*
X0136528Y0200622D03*
D17*
X0112622Y0213217D03*
X0112622Y0225028D03*
X0223622Y0315717D03*
X0223622Y0327528D03*
X0266622Y0327528D03*
X0266622Y0315717D03*
X0381122Y0225028D03*
X0381122Y0213217D03*
D18*
X0341207Y0205077D02*
X0340788Y0206596D01*
X0340136Y0208031D01*
X0339268Y0209346D01*
X0338205Y0210509D01*
X0336973Y0211491D01*
X0335603Y0212269D01*
X0334128Y0212823D01*
X0332585Y0213139D01*
X0316661Y0213047D01*
X0317642Y0211967D01*
X0318439Y0210744D01*
X0319031Y0209409D01*
X0319402Y0207997D01*
X0319544Y0206545D01*
X0319452Y0205088D01*
X0319128Y0203664D01*
X0318583Y0202310D01*
X0317828Y0201061D01*
X0316883Y0199947D01*
X0315774Y0198999D01*
X0314527Y0198240D01*
X0329777Y0193656D01*
X0331347Y0193523D01*
X0332918Y0193638D01*
X0334453Y0193997D01*
X0335912Y0194592D01*
X0337260Y0195408D01*
X0338464Y0196424D01*
X0339494Y0197616D01*
X0340325Y0198955D01*
X0340936Y0200407D01*
X0341312Y0201937D01*
X0341383Y0203511D01*
X0341207Y0205077D01*
X0341213Y0205026D02*
X0319437Y0205026D01*
X0319498Y0205824D02*
X0341001Y0205824D01*
X0340776Y0206623D02*
X0319536Y0206623D01*
X0319458Y0207421D02*
X0340413Y0207421D01*
X0340011Y0208220D02*
X0319344Y0208220D01*
X0319134Y0209018D02*
X0339484Y0209018D01*
X0338838Y0209817D02*
X0318850Y0209817D01*
X0318496Y0210615D02*
X0338072Y0210615D01*
X0337071Y0211414D02*
X0318003Y0211414D01*
X0317420Y0212212D02*
X0335704Y0212212D01*
X0333212Y0213011D02*
X0316694Y0213011D01*
X0316661Y0218197D02*
X0332585Y0218105D01*
X0334128Y0218421D01*
X0335603Y0218975D01*
X0336974Y0219753D01*
X0338205Y0220735D01*
X0339268Y0221898D01*
X0340136Y0223213D01*
X0340788Y0224648D01*
X0341207Y0226167D01*
X0341383Y0227733D01*
X0341312Y0229307D01*
X0340936Y0230837D01*
X0340324Y0232289D01*
X0339494Y0233628D01*
X0338464Y0234820D01*
X0337260Y0235836D01*
X0335912Y0236652D01*
X0334453Y0237247D01*
X0332918Y0237606D01*
X0331347Y0237721D01*
X0329777Y0237589D01*
X0314527Y0233004D01*
X0315774Y0232245D01*
X0316883Y0231297D01*
X0317828Y0230183D01*
X0318583Y0228934D01*
X0319128Y0227580D01*
X0319452Y0226156D01*
X0319544Y0224700D01*
X0319402Y0223247D01*
X0319031Y0221835D01*
X0318439Y0220500D01*
X0317642Y0219277D01*
X0316661Y0218197D01*
X0317027Y0218600D02*
X0334605Y0218600D01*
X0336350Y0219399D02*
X0317722Y0219399D01*
X0318242Y0220197D02*
X0337531Y0220197D01*
X0338444Y0220996D02*
X0318659Y0220996D01*
X0319013Y0221794D02*
X0339173Y0221794D01*
X0339727Y0222593D02*
X0319230Y0222593D01*
X0319416Y0223391D02*
X0340217Y0223391D01*
X0340580Y0224190D02*
X0319494Y0224190D01*
X0319525Y0224988D02*
X0340882Y0224988D01*
X0341102Y0225787D02*
X0319475Y0225787D01*
X0319354Y0226585D02*
X0341254Y0226585D01*
X0341344Y0227384D02*
X0319173Y0227384D01*
X0318886Y0228182D02*
X0341363Y0228182D01*
X0341327Y0228981D02*
X0318554Y0228981D01*
X0318072Y0229779D02*
X0341196Y0229779D01*
X0340999Y0230578D02*
X0317493Y0230578D01*
X0316790Y0231376D02*
X0340709Y0231376D01*
X0340372Y0232175D02*
X0315856Y0232175D01*
X0314578Y0232973D02*
X0339900Y0232973D01*
X0339369Y0233772D02*
X0317080Y0233772D01*
X0319737Y0234570D02*
X0338679Y0234570D01*
X0337813Y0235369D02*
X0322393Y0235369D01*
X0325049Y0236167D02*
X0336712Y0236167D01*
X0335142Y0236966D02*
X0327706Y0236966D01*
X0322700Y0240959D02*
X0314866Y0240959D01*
X0314849Y0240762D02*
X0314491Y0239347D01*
X0313912Y0238006D01*
X0329008Y0243077D01*
X0330366Y0243877D01*
X0331582Y0244878D01*
X0332626Y0246058D01*
X0333473Y0247387D01*
X0334102Y0248831D01*
X0334497Y0250357D01*
X0334649Y0251925D01*
X0334554Y0253498D01*
X0334213Y0255036D01*
X0333636Y0256502D01*
X0332785Y0257828D01*
X0331736Y0259004D01*
X0330516Y0260001D01*
X0329155Y0260796D01*
X0327687Y0261367D01*
X0326148Y0261703D01*
X0324574Y0261793D01*
X0323007Y0261636D01*
X0321483Y0261235D01*
X0320040Y0260601D01*
X0307097Y0251325D01*
X0308523Y0251010D01*
X0309880Y0250472D01*
X0311134Y0249725D01*
X0312253Y0248787D01*
X0313208Y0247683D01*
X0313975Y0246441D01*
X0314534Y0245093D01*
X0314870Y0243672D01*
X0314976Y0242216D01*
X0314849Y0240762D01*
X0314697Y0240160D02*
X0320323Y0240160D01*
X0317946Y0239362D02*
X0314495Y0239362D01*
X0314153Y0238563D02*
X0315569Y0238563D01*
X0314936Y0241757D02*
X0325077Y0241757D01*
X0327454Y0242556D02*
X0314952Y0242556D01*
X0314894Y0243354D02*
X0329478Y0243354D01*
X0330701Y0244153D02*
X0314756Y0244153D01*
X0314567Y0244951D02*
X0331646Y0244951D01*
X0332353Y0245750D02*
X0314261Y0245750D01*
X0313909Y0246548D02*
X0332939Y0246548D01*
X0333448Y0247347D02*
X0313416Y0247347D01*
X0312808Y0248145D02*
X0333804Y0248145D01*
X0334131Y0248944D02*
X0312066Y0248944D01*
X0311105Y0249742D02*
X0334338Y0249742D01*
X0334515Y0250541D02*
X0309707Y0250541D01*
X0308232Y0252138D02*
X0334636Y0252138D01*
X0334588Y0252936D02*
X0309346Y0252936D01*
X0310460Y0253735D02*
X0334501Y0253735D01*
X0334324Y0254533D02*
X0311574Y0254533D01*
X0312688Y0255332D02*
X0334097Y0255332D01*
X0333783Y0256130D02*
X0313802Y0256130D01*
X0314916Y0256929D02*
X0333362Y0256929D01*
X0332849Y0257727D02*
X0316030Y0257727D01*
X0317144Y0258526D02*
X0332162Y0258526D01*
X0331344Y0259324D02*
X0318259Y0259324D01*
X0319373Y0260123D02*
X0330308Y0260123D01*
X0328833Y0260921D02*
X0320768Y0260921D01*
X0323848Y0261720D02*
X0325845Y0261720D01*
X0319128Y0267309D02*
X0298509Y0267309D01*
X0298313Y0267406D02*
X0299623Y0266762D01*
X0300814Y0265918D01*
X0301855Y0264894D01*
X0302720Y0263718D01*
X0303386Y0262419D01*
X0303836Y0261030D01*
X0304059Y0259588D01*
X0304049Y0258128D01*
X0303807Y0256688D01*
X0317257Y0265214D01*
X0318385Y0266314D01*
X0319327Y0267577D01*
X0320060Y0268971D01*
X0320566Y0270464D01*
X0320832Y0272017D01*
X0320852Y0273592D01*
X0320625Y0275151D01*
X0320157Y0276656D01*
X0319459Y0278069D01*
X0318549Y0279355D01*
X0317406Y0280439D01*
X0316107Y0281331D01*
X0314685Y0282009D01*
X0313174Y0282456D01*
X0311611Y0282661D01*
X0310036Y0282619D01*
X0308487Y0282331D01*
X0307002Y0281805D01*
X0305618Y0281052D01*
X0304368Y0280093D01*
X0294011Y0267996D01*
X0295471Y0268031D01*
X0296917Y0267832D01*
X0298313Y0267406D01*
X0299978Y0266511D02*
X0318532Y0266511D01*
X0317768Y0265712D02*
X0301023Y0265712D01*
X0301835Y0264914D02*
X0316784Y0264914D01*
X0315524Y0264115D02*
X0302428Y0264115D01*
X0302925Y0263317D02*
X0314264Y0263317D01*
X0313005Y0262518D02*
X0303335Y0262518D01*
X0303612Y0261720D02*
X0311745Y0261720D01*
X0310485Y0260921D02*
X0303853Y0260921D01*
X0303976Y0260123D02*
X0309225Y0260123D01*
X0307966Y0259324D02*
X0304057Y0259324D01*
X0304052Y0258526D02*
X0306706Y0258526D01*
X0305446Y0257727D02*
X0303982Y0257727D01*
X0303847Y0256929D02*
X0304186Y0256929D01*
X0307118Y0251339D02*
X0334592Y0251339D01*
X0319606Y0268108D02*
X0294107Y0268108D01*
X0294791Y0268906D02*
X0320026Y0268906D01*
X0320308Y0269705D02*
X0295474Y0269705D01*
X0296158Y0270503D02*
X0320572Y0270503D01*
X0320709Y0271302D02*
X0296842Y0271302D01*
X0297525Y0272100D02*
X0320833Y0272100D01*
X0320843Y0272899D02*
X0298209Y0272899D01*
X0298893Y0273698D02*
X0320836Y0273698D01*
X0320720Y0274496D02*
X0299576Y0274496D01*
X0300260Y0275295D02*
X0320580Y0275295D01*
X0320332Y0276093D02*
X0300944Y0276093D01*
X0301627Y0276892D02*
X0320041Y0276892D01*
X0319646Y0277690D02*
X0302311Y0277690D01*
X0302995Y0278489D02*
X0319162Y0278489D01*
X0318598Y0279287D02*
X0303678Y0279287D01*
X0304362Y0280086D02*
X0317779Y0280086D01*
X0316758Y0280884D02*
X0305399Y0280884D01*
X0306778Y0281683D02*
X0315369Y0281683D01*
X0312979Y0282481D02*
X0309295Y0282481D01*
X0301527Y0285004D02*
X0302074Y0286481D01*
X0302384Y0288026D01*
X0302447Y0289601D01*
X0302264Y0291166D01*
X0301838Y0292683D01*
X0301181Y0294114D01*
X0300307Y0295426D01*
X0299239Y0296584D01*
X0298003Y0297561D01*
X0296600Y0298278D01*
X0295102Y0298767D01*
X0293546Y0299016D01*
X0291970Y0299018D01*
X0290414Y0298773D01*
X0288915Y0298288D01*
X0287510Y0297575D01*
X0286234Y0296651D01*
X0285118Y0295538D01*
X0284190Y0294265D01*
X0277670Y0279736D01*
X0279061Y0280181D01*
X0280504Y0280399D01*
X0281964Y0280384D01*
X0283402Y0280137D01*
X0284783Y0279663D01*
X0286071Y0278975D01*
X0287232Y0278091D01*
X0288238Y0277032D01*
X0289062Y0275827D01*
X0289683Y0274506D01*
X0290086Y0273103D01*
X0290260Y0271654D01*
X0300755Y0283630D01*
X0301527Y0285004D01*
X0301456Y0284877D02*
X0279977Y0284877D01*
X0280336Y0285675D02*
X0301776Y0285675D01*
X0302071Y0286474D02*
X0280694Y0286474D01*
X0281052Y0287272D02*
X0302233Y0287272D01*
X0302385Y0288071D02*
X0281411Y0288071D01*
X0281769Y0288869D02*
X0302418Y0288869D01*
X0302440Y0289668D02*
X0282127Y0289668D01*
X0282486Y0290466D02*
X0302346Y0290466D01*
X0302236Y0291265D02*
X0282844Y0291265D01*
X0283202Y0292063D02*
X0302012Y0292063D01*
X0301756Y0292862D02*
X0283561Y0292862D01*
X0283919Y0293660D02*
X0301389Y0293660D01*
X0300951Y0294459D02*
X0284332Y0294459D01*
X0284914Y0295257D02*
X0300419Y0295257D01*
X0299726Y0296056D02*
X0285637Y0296056D01*
X0286515Y0296854D02*
X0298897Y0296854D01*
X0297823Y0297653D02*
X0287663Y0297653D01*
X0289419Y0298451D02*
X0296069Y0298451D01*
X0301007Y0284078D02*
X0279619Y0284078D01*
X0279260Y0283280D02*
X0300448Y0283280D01*
X0299749Y0282481D02*
X0278902Y0282481D01*
X0278544Y0281683D02*
X0299049Y0281683D01*
X0298349Y0280884D02*
X0278185Y0280884D01*
X0277827Y0280086D02*
X0278761Y0280086D01*
X0283551Y0280086D02*
X0297649Y0280086D01*
X0296949Y0279287D02*
X0285487Y0279287D01*
X0286710Y0278489D02*
X0296250Y0278489D01*
X0295550Y0277690D02*
X0287613Y0277690D01*
X0288334Y0276892D02*
X0294850Y0276892D01*
X0294150Y0276093D02*
X0288880Y0276093D01*
X0289312Y0275295D02*
X0293450Y0275295D01*
X0292751Y0274496D02*
X0289686Y0274496D01*
X0289915Y0273698D02*
X0292051Y0273698D01*
X0291351Y0272899D02*
X0290110Y0272899D01*
X0290206Y0272100D02*
X0290651Y0272100D01*
X0274062Y0285675D02*
X0269885Y0285675D01*
X0269996Y0285584D02*
X0270965Y0284493D01*
X0271748Y0283260D01*
X0272324Y0281919D01*
X0279011Y0296371D01*
X0279363Y0297907D01*
X0279471Y0299479D01*
X0279332Y0301048D01*
X0278948Y0302577D01*
X0278331Y0304026D01*
X0277494Y0305361D01*
X0276459Y0306549D01*
X0275250Y0307560D01*
X0273899Y0308370D01*
X0272437Y0308958D01*
X0270889Y0309250D01*
X0269314Y0309296D01*
X0267751Y0309095D01*
X0266239Y0308652D01*
X0264815Y0307978D01*
X0263513Y0307090D01*
X0262367Y0306009D01*
X0261404Y0304762D01*
X0260648Y0303380D01*
X0260117Y0301896D01*
X0257964Y0286118D01*
X0259172Y0286938D01*
X0260496Y0287554D01*
X0261900Y0287952D01*
X0263350Y0288121D01*
X0264809Y0288056D01*
X0266238Y0287760D01*
X0267602Y0287239D01*
X0268865Y0286508D01*
X0269996Y0285584D01*
X0270624Y0284877D02*
X0273692Y0284877D01*
X0273323Y0284078D02*
X0271228Y0284078D01*
X0271735Y0283280D02*
X0272953Y0283280D01*
X0272584Y0282481D02*
X0272082Y0282481D01*
X0274431Y0286474D02*
X0268907Y0286474D01*
X0267515Y0287272D02*
X0274801Y0287272D01*
X0275170Y0288071D02*
X0264474Y0288071D01*
X0262922Y0288071D02*
X0258231Y0288071D01*
X0258340Y0288869D02*
X0275540Y0288869D01*
X0275909Y0289668D02*
X0258449Y0289668D01*
X0258558Y0290466D02*
X0276279Y0290466D01*
X0276648Y0291265D02*
X0258667Y0291265D01*
X0258776Y0292063D02*
X0277018Y0292063D01*
X0277387Y0292862D02*
X0258885Y0292862D01*
X0258993Y0293660D02*
X0277757Y0293660D01*
X0278126Y0294459D02*
X0259102Y0294459D01*
X0259211Y0295257D02*
X0278496Y0295257D01*
X0278865Y0296056D02*
X0259320Y0296056D01*
X0259429Y0296854D02*
X0279122Y0296854D01*
X0279305Y0297653D02*
X0259538Y0297653D01*
X0259647Y0298451D02*
X0279401Y0298451D01*
X0279455Y0299250D02*
X0259756Y0299250D01*
X0259865Y0300048D02*
X0279420Y0300048D01*
X0279349Y0300847D02*
X0259974Y0300847D01*
X0260083Y0301645D02*
X0279182Y0301645D01*
X0278982Y0302444D02*
X0260313Y0302444D01*
X0260599Y0303242D02*
X0278665Y0303242D01*
X0278321Y0304041D02*
X0261010Y0304041D01*
X0261464Y0304839D02*
X0277821Y0304839D01*
X0277253Y0305638D02*
X0262081Y0305638D01*
X0262820Y0306436D02*
X0276557Y0306436D01*
X0275639Y0307235D02*
X0263726Y0307235D01*
X0264931Y0308034D02*
X0274460Y0308034D01*
X0272751Y0308832D02*
X0266852Y0308832D01*
X0254534Y0305809D02*
X0253960Y0307276D01*
X0253163Y0308635D01*
X0252163Y0309853D01*
X0250985Y0310900D01*
X0249658Y0311749D01*
X0248215Y0312381D01*
X0246690Y0312779D01*
X0245122Y0312933D01*
X0243554Y0312779D01*
X0242029Y0312381D01*
X0240586Y0311749D01*
X0239259Y0310900D01*
X0238081Y0309853D01*
X0237081Y0308635D01*
X0236285Y0307276D01*
X0235710Y0305809D01*
X0235372Y0304270D01*
X0235280Y0302697D01*
X0237642Y0286949D01*
X0238571Y0288075D01*
X0239668Y0289038D01*
X0240905Y0289814D01*
X0242249Y0290383D01*
X0243667Y0290730D01*
X0245122Y0290847D01*
X0246577Y0290730D01*
X0247995Y0290383D01*
X0249339Y0289814D01*
X0250576Y0289038D01*
X0251673Y0288075D01*
X0252602Y0286949D01*
X0254965Y0302697D01*
X0254872Y0304270D01*
X0254534Y0305809D01*
X0254571Y0305638D02*
X0235673Y0305638D01*
X0235497Y0304839D02*
X0254747Y0304839D01*
X0254885Y0304041D02*
X0235359Y0304041D01*
X0235312Y0303242D02*
X0254932Y0303242D01*
X0254927Y0302444D02*
X0235317Y0302444D01*
X0235437Y0301645D02*
X0254807Y0301645D01*
X0254687Y0300847D02*
X0235557Y0300847D01*
X0235677Y0300048D02*
X0254567Y0300048D01*
X0254448Y0299250D02*
X0235797Y0299250D01*
X0235916Y0298451D02*
X0254328Y0298451D01*
X0254208Y0297653D02*
X0236036Y0297653D01*
X0236156Y0296854D02*
X0254088Y0296854D01*
X0253968Y0296056D02*
X0236276Y0296056D01*
X0236395Y0295257D02*
X0253849Y0295257D01*
X0253729Y0294459D02*
X0236515Y0294459D01*
X0236635Y0293660D02*
X0253609Y0293660D01*
X0253489Y0292862D02*
X0236755Y0292862D01*
X0236875Y0292063D02*
X0253370Y0292063D01*
X0253250Y0291265D02*
X0236994Y0291265D01*
X0237114Y0290466D02*
X0242591Y0290466D01*
X0240672Y0289668D02*
X0237234Y0289668D01*
X0237354Y0288869D02*
X0239476Y0288869D01*
X0238568Y0288071D02*
X0237473Y0288071D01*
X0237593Y0287272D02*
X0237909Y0287272D01*
X0232231Y0286474D02*
X0231755Y0286474D01*
X0232280Y0286118D02*
X0230127Y0301896D01*
X0229596Y0303380D01*
X0228840Y0304762D01*
X0227877Y0306009D01*
X0226731Y0307090D01*
X0225430Y0307979D01*
X0224005Y0308653D01*
X0222493Y0309095D01*
X0220930Y0309296D01*
X0219355Y0309250D01*
X0217807Y0308958D01*
X0216345Y0308370D01*
X0214994Y0307560D01*
X0213785Y0306549D01*
X0212750Y0305361D01*
X0211913Y0304026D01*
X0211296Y0302577D01*
X0210913Y0301048D01*
X0210773Y0299479D01*
X0210881Y0297907D01*
X0211233Y0296371D01*
X0217920Y0281919D01*
X0218496Y0283260D01*
X0219279Y0284493D01*
X0220248Y0285584D01*
X0221379Y0286508D01*
X0222642Y0287239D01*
X0224006Y0287760D01*
X0225435Y0288056D01*
X0226894Y0288121D01*
X0228344Y0287952D01*
X0229748Y0287554D01*
X0231072Y0286938D01*
X0232280Y0286118D01*
X0232122Y0287272D02*
X0230354Y0287272D01*
X0232013Y0288071D02*
X0227322Y0288071D01*
X0225770Y0288071D02*
X0215074Y0288071D01*
X0214704Y0288869D02*
X0231904Y0288869D01*
X0231795Y0289668D02*
X0214335Y0289668D01*
X0213965Y0290466D02*
X0231686Y0290466D01*
X0231577Y0291265D02*
X0213596Y0291265D01*
X0213226Y0292063D02*
X0231468Y0292063D01*
X0231360Y0292862D02*
X0212857Y0292862D01*
X0212487Y0293660D02*
X0231251Y0293660D01*
X0231142Y0294459D02*
X0212118Y0294459D01*
X0211748Y0295257D02*
X0231033Y0295257D01*
X0230924Y0296056D02*
X0211379Y0296056D01*
X0211122Y0296854D02*
X0230815Y0296854D01*
X0230706Y0297653D02*
X0210939Y0297653D01*
X0210844Y0298451D02*
X0230597Y0298451D01*
X0230488Y0299250D02*
X0210789Y0299250D01*
X0210824Y0300048D02*
X0230379Y0300048D01*
X0230270Y0300847D02*
X0210895Y0300847D01*
X0211062Y0301645D02*
X0230161Y0301645D01*
X0229931Y0302444D02*
X0211263Y0302444D01*
X0211580Y0303242D02*
X0229645Y0303242D01*
X0229235Y0304041D02*
X0211923Y0304041D01*
X0212423Y0304839D02*
X0228780Y0304839D01*
X0228164Y0305638D02*
X0212991Y0305638D01*
X0213687Y0306436D02*
X0227424Y0306436D01*
X0226519Y0307235D02*
X0214605Y0307235D01*
X0215784Y0308034D02*
X0225313Y0308034D01*
X0223392Y0308832D02*
X0217493Y0308832D01*
X0205107Y0296056D02*
X0191018Y0296056D01*
X0191505Y0296584D02*
X0190437Y0295426D01*
X0189564Y0294114D01*
X0188906Y0292683D01*
X0188480Y0291166D01*
X0188297Y0289601D01*
X0188361Y0288026D01*
X0188670Y0286481D01*
X0189217Y0285004D01*
X0189989Y0283630D01*
X0200484Y0271654D01*
X0200658Y0273103D01*
X0201061Y0274506D01*
X0201682Y0275827D01*
X0202506Y0277032D01*
X0203512Y0278091D01*
X0204673Y0278975D01*
X0205961Y0279663D01*
X0207342Y0280137D01*
X0208780Y0280384D01*
X0210240Y0280399D01*
X0211684Y0280181D01*
X0213074Y0279736D01*
X0206554Y0294265D01*
X0205626Y0295538D01*
X0204510Y0296651D01*
X0203234Y0297575D01*
X0201829Y0298289D01*
X0200330Y0298773D01*
X0198774Y0299018D01*
X0197198Y0299016D01*
X0195642Y0298767D01*
X0194144Y0298278D01*
X0192741Y0297561D01*
X0191505Y0296584D01*
X0191847Y0296854D02*
X0204229Y0296854D01*
X0203081Y0297653D02*
X0192921Y0297653D01*
X0194675Y0298451D02*
X0201326Y0298451D01*
X0205830Y0295257D02*
X0190325Y0295257D01*
X0189793Y0294459D02*
X0206412Y0294459D01*
X0206825Y0293660D02*
X0189355Y0293660D01*
X0188988Y0292862D02*
X0207183Y0292862D01*
X0207542Y0292063D02*
X0188732Y0292063D01*
X0188508Y0291265D02*
X0207900Y0291265D01*
X0208258Y0290466D02*
X0188398Y0290466D01*
X0188305Y0289668D02*
X0208617Y0289668D01*
X0208975Y0288869D02*
X0188326Y0288869D01*
X0188359Y0288071D02*
X0209333Y0288071D01*
X0209692Y0287272D02*
X0188512Y0287272D01*
X0188673Y0286474D02*
X0210050Y0286474D01*
X0210409Y0285675D02*
X0188968Y0285675D01*
X0189288Y0284877D02*
X0210767Y0284877D01*
X0211125Y0284078D02*
X0189737Y0284078D01*
X0190296Y0283280D02*
X0211484Y0283280D01*
X0211842Y0282481D02*
X0190995Y0282481D01*
X0191695Y0281683D02*
X0212200Y0281683D01*
X0212559Y0280884D02*
X0192395Y0280884D01*
X0193095Y0280086D02*
X0207193Y0280086D01*
X0205257Y0279287D02*
X0193795Y0279287D01*
X0194494Y0278489D02*
X0204034Y0278489D01*
X0203131Y0277690D02*
X0195194Y0277690D01*
X0195894Y0276892D02*
X0202410Y0276892D01*
X0201864Y0276093D02*
X0196594Y0276093D01*
X0197294Y0275295D02*
X0201432Y0275295D01*
X0201058Y0274496D02*
X0197993Y0274496D01*
X0198693Y0273698D02*
X0200829Y0273698D01*
X0200634Y0272899D02*
X0199393Y0272899D01*
X0200093Y0272100D02*
X0200538Y0272100D01*
X0196137Y0268108D02*
X0170638Y0268108D01*
X0170917Y0267577D02*
X0171859Y0266314D01*
X0172987Y0265214D01*
X0186437Y0256688D01*
X0186195Y0258128D01*
X0186185Y0259588D01*
X0186408Y0261030D01*
X0186858Y0262419D01*
X0187524Y0263718D01*
X0188389Y0264894D01*
X0189430Y0265918D01*
X0190621Y0266762D01*
X0191931Y0267406D01*
X0193327Y0267832D01*
X0194773Y0268031D01*
X0196233Y0267996D01*
X0185876Y0280093D01*
X0184626Y0281052D01*
X0183242Y0281805D01*
X0181757Y0282331D01*
X0180208Y0282619D01*
X0178633Y0282661D01*
X0177070Y0282456D01*
X0175559Y0282009D01*
X0174137Y0281331D01*
X0172838Y0280439D01*
X0171695Y0279355D01*
X0170785Y0278069D01*
X0170087Y0276656D01*
X0169619Y0275151D01*
X0169393Y0273592D01*
X0169413Y0272017D01*
X0169679Y0270464D01*
X0170184Y0268971D01*
X0170917Y0267577D01*
X0171117Y0267309D02*
X0191735Y0267309D01*
X0190266Y0266511D02*
X0171712Y0266511D01*
X0172476Y0265712D02*
X0189221Y0265712D01*
X0188409Y0264914D02*
X0173460Y0264914D01*
X0174720Y0264115D02*
X0187816Y0264115D01*
X0187319Y0263317D02*
X0175980Y0263317D01*
X0177240Y0262518D02*
X0186909Y0262518D01*
X0186632Y0261720D02*
X0178499Y0261720D01*
X0179759Y0260921D02*
X0186391Y0260921D01*
X0186268Y0260123D02*
X0181019Y0260123D01*
X0182279Y0259324D02*
X0186187Y0259324D01*
X0186192Y0258526D02*
X0183538Y0258526D01*
X0184798Y0257727D02*
X0186262Y0257727D01*
X0186397Y0256929D02*
X0186058Y0256929D01*
X0182988Y0252138D02*
X0155582Y0252138D01*
X0155571Y0251401D02*
X0155595Y0252977D01*
X0155865Y0254529D01*
X0156374Y0256020D01*
X0157165Y0257383D01*
X0158160Y0258605D01*
X0159333Y0259657D01*
X0160656Y0260512D01*
X0162097Y0261150D01*
X0163620Y0261555D01*
X0165187Y0261716D01*
X0166760Y0261630D01*
X0168301Y0261299D01*
X0169771Y0260731D01*
X0183121Y0252051D01*
X0181711Y0251672D01*
X0180380Y0251074D01*
X0179161Y0250270D01*
X0178086Y0249283D01*
X0177182Y0248137D01*
X0176472Y0246861D01*
X0175975Y0245488D01*
X0175703Y0244054D01*
X0175663Y0242595D01*
X0175857Y0241148D01*
X0176278Y0239750D01*
X0176917Y0238438D01*
X0161607Y0242819D01*
X0160215Y0243556D01*
X0158954Y0244501D01*
X0157857Y0245632D01*
X0156951Y0246921D01*
X0156257Y0248336D01*
X0155793Y0249842D01*
X0155571Y0251401D01*
X0155579Y0251339D02*
X0180970Y0251339D01*
X0179572Y0250541D02*
X0155693Y0250541D01*
X0155824Y0249742D02*
X0178586Y0249742D01*
X0177819Y0248944D02*
X0156070Y0248944D01*
X0156351Y0248145D02*
X0177189Y0248145D01*
X0176743Y0247347D02*
X0156742Y0247347D01*
X0157213Y0246548D02*
X0176359Y0246548D01*
X0176070Y0245750D02*
X0157775Y0245750D01*
X0158518Y0244951D02*
X0175873Y0244951D01*
X0175722Y0244153D02*
X0159419Y0244153D01*
X0160596Y0243354D02*
X0175684Y0243354D01*
X0175669Y0242556D02*
X0162527Y0242556D01*
X0165318Y0241757D02*
X0175775Y0241757D01*
X0175914Y0240959D02*
X0168108Y0240959D01*
X0170898Y0240160D02*
X0176155Y0240160D01*
X0176467Y0239362D02*
X0173689Y0239362D01*
X0176479Y0238563D02*
X0176856Y0238563D01*
X0175717Y0233004D02*
X0160467Y0237589D01*
X0158897Y0237721D01*
X0157326Y0237606D01*
X0155791Y0237247D01*
X0154332Y0236652D01*
X0152984Y0235837D01*
X0151780Y0234820D01*
X0150750Y0233628D01*
X0149920Y0232289D01*
X0149308Y0230837D01*
X0148932Y0229307D01*
X0148861Y0227733D01*
X0149037Y0226167D01*
X0149456Y0224648D01*
X0150108Y0223213D01*
X0150976Y0221898D01*
X0152039Y0220735D01*
X0153271Y0219753D01*
X0154641Y0218975D01*
X0156116Y0218421D01*
X0157660Y0218105D01*
X0173583Y0218197D01*
X0172602Y0219277D01*
X0171805Y0220500D01*
X0171213Y0221835D01*
X0170842Y0223247D01*
X0170701Y0224700D01*
X0170793Y0226156D01*
X0171116Y0227580D01*
X0171662Y0228934D01*
X0172416Y0230183D01*
X0173361Y0231297D01*
X0174470Y0232245D01*
X0175717Y0233004D01*
X0175666Y0232973D02*
X0150344Y0232973D01*
X0149872Y0232175D02*
X0174388Y0232175D01*
X0173454Y0231376D02*
X0149535Y0231376D01*
X0149245Y0230578D02*
X0172751Y0230578D01*
X0172172Y0229779D02*
X0149048Y0229779D01*
X0148917Y0228981D02*
X0171690Y0228981D01*
X0171358Y0228182D02*
X0148881Y0228182D01*
X0148900Y0227384D02*
X0171071Y0227384D01*
X0170890Y0226585D02*
X0148990Y0226585D01*
X0149142Y0225787D02*
X0170769Y0225787D01*
X0170719Y0224988D02*
X0149363Y0224988D01*
X0149665Y0224190D02*
X0170750Y0224190D01*
X0170828Y0223391D02*
X0150027Y0223391D01*
X0150518Y0222593D02*
X0171014Y0222593D01*
X0171231Y0221794D02*
X0151071Y0221794D01*
X0151801Y0220996D02*
X0171585Y0220996D01*
X0172002Y0220197D02*
X0152713Y0220197D01*
X0153894Y0219399D02*
X0172523Y0219399D01*
X0173217Y0218600D02*
X0155639Y0218600D01*
X0157032Y0213011D02*
X0173550Y0213011D01*
X0173583Y0213047D02*
X0157660Y0213139D01*
X0156116Y0212823D01*
X0154641Y0212269D01*
X0153271Y0211491D01*
X0152039Y0210509D01*
X0150976Y0209346D01*
X0150108Y0208031D01*
X0149456Y0206596D01*
X0149037Y0205077D01*
X0148861Y0203512D01*
X0148932Y0201937D01*
X0149308Y0200407D01*
X0149920Y0198955D01*
X0150750Y0197616D01*
X0151781Y0196424D01*
X0152984Y0195408D01*
X0154332Y0194592D01*
X0155792Y0193997D01*
X0157326Y0193638D01*
X0158897Y0193523D01*
X0160467Y0193656D01*
X0175717Y0198240D01*
X0174470Y0198999D01*
X0173361Y0199947D01*
X0172416Y0201061D01*
X0171662Y0202310D01*
X0171116Y0203664D01*
X0170793Y0205088D01*
X0170701Y0206545D01*
X0170842Y0207997D01*
X0171213Y0209409D01*
X0171805Y0210744D01*
X0172602Y0211967D01*
X0173583Y0213047D01*
X0172825Y0212212D02*
X0154540Y0212212D01*
X0153173Y0211414D02*
X0172241Y0211414D01*
X0171748Y0210615D02*
X0152172Y0210615D01*
X0151406Y0209817D02*
X0171394Y0209817D01*
X0171110Y0209018D02*
X0150759Y0209018D01*
X0150232Y0208220D02*
X0170900Y0208220D01*
X0170786Y0207421D02*
X0149831Y0207421D01*
X0149468Y0206623D02*
X0170708Y0206623D01*
X0170746Y0205824D02*
X0149243Y0205824D01*
X0149031Y0205026D02*
X0170807Y0205026D01*
X0170988Y0204227D02*
X0148942Y0204227D01*
X0148865Y0203429D02*
X0171211Y0203429D01*
X0171533Y0202630D02*
X0148901Y0202630D01*
X0148958Y0201831D02*
X0171951Y0201831D01*
X0172440Y0201033D02*
X0149154Y0201033D01*
X0149381Y0200234D02*
X0173117Y0200234D01*
X0173959Y0199436D02*
X0149717Y0199436D01*
X0150117Y0198637D02*
X0175064Y0198637D01*
X0174384Y0197839D02*
X0150612Y0197839D01*
X0151248Y0197040D02*
X0171728Y0197040D01*
X0169071Y0196242D02*
X0151996Y0196242D01*
X0152942Y0195443D02*
X0166415Y0195443D01*
X0163758Y0194645D02*
X0154245Y0194645D01*
X0156436Y0193846D02*
X0161102Y0193846D01*
X0163809Y0189055D02*
X0175718Y0189055D01*
X0175663Y0188649D02*
X0175857Y0190096D01*
X0176278Y0191494D01*
X0176917Y0192806D01*
X0161607Y0188425D01*
X0160215Y0187689D01*
X0158954Y0186743D01*
X0157857Y0185612D01*
X0156951Y0184323D01*
X0156257Y0182908D01*
X0155793Y0181403D01*
X0155570Y0179843D01*
X0155595Y0178267D01*
X0155865Y0176715D01*
X0156374Y0175224D01*
X0157165Y0173861D01*
X0158160Y0172639D01*
X0159333Y0171587D01*
X0160656Y0170732D01*
X0162097Y0170094D01*
X0163620Y0169690D01*
X0165187Y0169528D01*
X0166760Y0169614D01*
X0168301Y0169945D01*
X0169771Y0170513D01*
X0183121Y0179193D01*
X0181711Y0179572D01*
X0180380Y0180170D01*
X0179161Y0180974D01*
X0178086Y0181961D01*
X0177182Y0183108D01*
X0176472Y0184383D01*
X0175975Y0185756D01*
X0175703Y0187190D01*
X0175663Y0188649D01*
X0175674Y0188257D02*
X0161289Y0188257D01*
X0159908Y0187458D02*
X0175696Y0187458D01*
X0175804Y0186660D02*
X0158874Y0186660D01*
X0158099Y0185861D02*
X0175955Y0185861D01*
X0176226Y0185063D02*
X0157471Y0185063D01*
X0156922Y0184264D02*
X0176539Y0184264D01*
X0176983Y0183466D02*
X0156530Y0183466D01*
X0156183Y0182667D02*
X0177529Y0182667D01*
X0178187Y0181869D02*
X0155937Y0181869D01*
X0155746Y0181070D02*
X0179056Y0181070D01*
X0180226Y0180272D02*
X0155632Y0180272D01*
X0155576Y0179473D02*
X0182078Y0179473D01*
X0182324Y0178675D02*
X0155588Y0178675D01*
X0155663Y0177876D02*
X0181096Y0177876D01*
X0179868Y0177078D02*
X0155802Y0177078D01*
X0156014Y0176279D02*
X0178640Y0176279D01*
X0177412Y0175481D02*
X0156287Y0175481D01*
X0156689Y0174682D02*
X0176183Y0174682D01*
X0174955Y0173884D02*
X0157152Y0173884D01*
X0157797Y0173085D02*
X0173727Y0173085D01*
X0172499Y0172287D02*
X0158553Y0172287D01*
X0159486Y0171488D02*
X0171271Y0171488D01*
X0170043Y0170690D02*
X0160752Y0170690D01*
X0162862Y0169891D02*
X0168050Y0169891D01*
X0172033Y0165100D02*
X0189749Y0165100D01*
X0189430Y0165326D02*
X0188389Y0166350D01*
X0187524Y0167526D01*
X0186858Y0168825D01*
X0186408Y0170214D01*
X0186185Y0171657D01*
X0186195Y0173116D01*
X0186437Y0174556D01*
X0172987Y0166030D01*
X0171859Y0164930D01*
X0170917Y0163667D01*
X0170184Y0162273D01*
X0169678Y0160780D01*
X0169412Y0159227D01*
X0169392Y0157652D01*
X0169619Y0156093D01*
X0170087Y0154588D01*
X0170785Y0153175D01*
X0171695Y0151889D01*
X0172838Y0150805D01*
X0174137Y0149913D01*
X0175559Y0149235D01*
X0177070Y0148788D01*
X0178633Y0148583D01*
X0180208Y0148625D01*
X0181757Y0148913D01*
X0183242Y0149440D01*
X0184626Y0150192D01*
X0185876Y0151151D01*
X0196233Y0163248D01*
X0194773Y0163213D01*
X0193327Y0163412D01*
X0191931Y0163838D01*
X0190621Y0164482D01*
X0189430Y0165326D01*
X0188848Y0165898D02*
X0172852Y0165898D01*
X0174039Y0166697D02*
X0188134Y0166697D01*
X0187547Y0167496D02*
X0175299Y0167496D01*
X0176558Y0168294D02*
X0187131Y0168294D01*
X0186772Y0169093D02*
X0177818Y0169093D01*
X0179078Y0169891D02*
X0186513Y0169891D01*
X0186335Y0170690D02*
X0180338Y0170690D01*
X0181597Y0171488D02*
X0186211Y0171488D01*
X0186189Y0172287D02*
X0182857Y0172287D01*
X0184117Y0173085D02*
X0186195Y0173085D01*
X0186324Y0173884D02*
X0185377Y0173884D01*
X0190988Y0164301D02*
X0171390Y0164301D01*
X0170831Y0163503D02*
X0193029Y0163503D01*
X0195084Y0161906D02*
X0170060Y0161906D01*
X0169789Y0161107D02*
X0194400Y0161107D01*
X0193716Y0160309D02*
X0169598Y0160309D01*
X0169461Y0159510D02*
X0193033Y0159510D01*
X0192349Y0158712D02*
X0169406Y0158712D01*
X0169396Y0157913D02*
X0191665Y0157913D01*
X0190982Y0157115D02*
X0169471Y0157115D01*
X0169587Y0156316D02*
X0190298Y0156316D01*
X0189614Y0155518D02*
X0169798Y0155518D01*
X0170046Y0154719D02*
X0188931Y0154719D01*
X0188247Y0153921D02*
X0170417Y0153921D01*
X0170822Y0153122D02*
X0187563Y0153122D01*
X0186880Y0152324D02*
X0171387Y0152324D01*
X0172078Y0151525D02*
X0186196Y0151525D01*
X0185323Y0150727D02*
X0172952Y0150727D01*
X0174115Y0149928D02*
X0184141Y0149928D01*
X0182368Y0149130D02*
X0175916Y0149130D01*
X0188670Y0144763D02*
X0188361Y0143218D01*
X0188297Y0141643D01*
X0188480Y0140079D01*
X0188906Y0138561D01*
X0189563Y0137130D01*
X0190437Y0135818D01*
X0191505Y0134660D01*
X0192741Y0133683D01*
X0194144Y0132966D01*
X0195642Y0132477D01*
X0197198Y0132229D01*
X0198774Y0132226D01*
X0200330Y0132471D01*
X0201829Y0132956D01*
X0203234Y0133669D01*
X0204510Y0134594D01*
X0205626Y0135706D01*
X0206554Y0136980D01*
X0213074Y0151508D01*
X0211684Y0151063D01*
X0210240Y0150845D01*
X0208780Y0150860D01*
X0207342Y0151107D01*
X0205961Y0151581D01*
X0204673Y0152269D01*
X0203512Y0153153D01*
X0202506Y0154212D01*
X0201682Y0155417D01*
X0201061Y0156738D01*
X0200658Y0158141D01*
X0200484Y0159590D01*
X0189989Y0147614D01*
X0189217Y0146240D01*
X0188670Y0144763D01*
X0188809Y0145137D02*
X0210215Y0145137D01*
X0209856Y0144339D02*
X0188585Y0144339D01*
X0188425Y0143540D02*
X0209498Y0143540D01*
X0209140Y0142742D02*
X0188341Y0142742D01*
X0188309Y0141943D02*
X0208781Y0141943D01*
X0208423Y0141145D02*
X0188355Y0141145D01*
X0188449Y0140346D02*
X0208065Y0140346D01*
X0207706Y0139548D02*
X0188629Y0139548D01*
X0188853Y0138749D02*
X0207348Y0138749D01*
X0206990Y0137951D02*
X0189186Y0137951D01*
X0189553Y0137152D02*
X0206631Y0137152D01*
X0206098Y0136354D02*
X0190081Y0136354D01*
X0190680Y0135555D02*
X0205474Y0135555D01*
X0204674Y0134757D02*
X0191416Y0134757D01*
X0192393Y0133958D02*
X0203633Y0133958D01*
X0202231Y0133160D02*
X0193765Y0133160D01*
X0196368Y0132361D02*
X0199631Y0132361D01*
X0210773Y0131765D02*
X0210912Y0130196D01*
X0211296Y0128668D01*
X0211913Y0127218D01*
X0212750Y0125883D01*
X0213785Y0124695D01*
X0214994Y0123684D01*
X0216345Y0122874D01*
X0217807Y0122286D01*
X0219355Y0121994D01*
X0220930Y0121948D01*
X0222493Y0122149D01*
X0224005Y0122592D01*
X0225430Y0123266D01*
X0226731Y0124154D01*
X0227877Y0125235D01*
X0228840Y0126482D01*
X0229596Y0127864D01*
X0230127Y0129348D01*
X0232280Y0145126D01*
X0231072Y0144306D01*
X0229748Y0143690D01*
X0228344Y0143292D01*
X0226894Y0143124D01*
X0225435Y0143188D01*
X0224006Y0143485D01*
X0222642Y0144005D01*
X0221379Y0144736D01*
X0220248Y0145660D01*
X0219279Y0146751D01*
X0218496Y0147984D01*
X0217920Y0149325D01*
X0211233Y0134873D01*
X0210881Y0133337D01*
X0210773Y0131765D01*
X0210791Y0131563D02*
X0230429Y0131563D01*
X0230538Y0132361D02*
X0210814Y0132361D01*
X0210869Y0133160D02*
X0230647Y0133160D01*
X0230756Y0133958D02*
X0211023Y0133958D01*
X0211206Y0134757D02*
X0230865Y0134757D01*
X0230974Y0135555D02*
X0211549Y0135555D01*
X0211918Y0136354D02*
X0231083Y0136354D01*
X0231192Y0137152D02*
X0212288Y0137152D01*
X0212657Y0137951D02*
X0231301Y0137951D01*
X0231410Y0138749D02*
X0213027Y0138749D01*
X0213396Y0139548D02*
X0231519Y0139548D01*
X0231627Y0140346D02*
X0213766Y0140346D01*
X0214135Y0141145D02*
X0231736Y0141145D01*
X0231845Y0141943D02*
X0214505Y0141943D01*
X0214874Y0142742D02*
X0231954Y0142742D01*
X0232063Y0143540D02*
X0229220Y0143540D01*
X0231119Y0144339D02*
X0232172Y0144339D01*
X0237528Y0143540D02*
X0238265Y0143540D01*
X0238571Y0143170D02*
X0237642Y0144295D01*
X0235280Y0128547D01*
X0235372Y0126974D01*
X0235710Y0125435D01*
X0236284Y0123968D01*
X0237081Y0122609D01*
X0238081Y0121391D01*
X0239259Y0120344D01*
X0240586Y0119495D01*
X0242029Y0118863D01*
X0243554Y0118465D01*
X0245122Y0118311D01*
X0246690Y0118466D01*
X0248215Y0118863D01*
X0249658Y0119495D01*
X0250985Y0120344D01*
X0252163Y0121391D01*
X0253163Y0122609D01*
X0253959Y0123968D01*
X0254534Y0125435D01*
X0254872Y0126974D01*
X0254965Y0128547D01*
X0252602Y0144295D01*
X0251673Y0143170D01*
X0250576Y0142206D01*
X0249339Y0141430D01*
X0247995Y0140862D01*
X0246577Y0140514D01*
X0245122Y0140398D01*
X0243667Y0140514D01*
X0242249Y0140862D01*
X0240905Y0141430D01*
X0239668Y0142206D01*
X0238571Y0143170D01*
X0239058Y0142742D02*
X0237409Y0142742D01*
X0237289Y0141943D02*
X0240088Y0141943D01*
X0241580Y0141145D02*
X0237169Y0141145D01*
X0237049Y0140346D02*
X0253195Y0140346D01*
X0253315Y0139548D02*
X0236930Y0139548D01*
X0236810Y0138749D02*
X0253434Y0138749D01*
X0253554Y0137951D02*
X0236690Y0137951D01*
X0236570Y0137152D02*
X0253674Y0137152D01*
X0253794Y0136354D02*
X0236450Y0136354D01*
X0236331Y0135555D02*
X0253913Y0135555D01*
X0254033Y0134757D02*
X0236211Y0134757D01*
X0236091Y0133958D02*
X0254153Y0133958D01*
X0254273Y0133160D02*
X0235971Y0133160D01*
X0235852Y0132361D02*
X0254393Y0132361D01*
X0254512Y0131563D02*
X0235732Y0131563D01*
X0235612Y0130764D02*
X0254632Y0130764D01*
X0254752Y0129965D02*
X0235492Y0129965D01*
X0235372Y0129167D02*
X0254872Y0129167D01*
X0254954Y0128368D02*
X0235290Y0128368D01*
X0235337Y0127570D02*
X0254907Y0127570D01*
X0254827Y0126771D02*
X0235417Y0126771D01*
X0235592Y0125973D02*
X0254652Y0125973D01*
X0254432Y0125174D02*
X0235812Y0125174D01*
X0236125Y0124376D02*
X0254119Y0124376D01*
X0253730Y0123577D02*
X0236514Y0123577D01*
X0236982Y0122779D02*
X0253262Y0122779D01*
X0252647Y0121980D02*
X0237597Y0121980D01*
X0238316Y0121182D02*
X0251928Y0121182D01*
X0251029Y0120383D02*
X0239215Y0120383D01*
X0240445Y0119585D02*
X0249799Y0119585D01*
X0247919Y0118786D02*
X0242324Y0118786D01*
X0228998Y0126771D02*
X0212193Y0126771D01*
X0211763Y0127570D02*
X0229435Y0127570D01*
X0229777Y0128368D02*
X0211423Y0128368D01*
X0211170Y0129167D02*
X0230062Y0129167D01*
X0230211Y0129965D02*
X0210970Y0129965D01*
X0210862Y0130764D02*
X0230320Y0130764D01*
X0228447Y0125973D02*
X0212694Y0125973D01*
X0213368Y0125174D02*
X0227813Y0125174D01*
X0226966Y0124376D02*
X0214167Y0124376D01*
X0215171Y0123577D02*
X0225886Y0123577D01*
X0224401Y0122779D02*
X0216582Y0122779D01*
X0219821Y0121980D02*
X0221183Y0121980D01*
X0223860Y0143540D02*
X0215244Y0143540D01*
X0215613Y0144339D02*
X0222066Y0144339D01*
X0220888Y0145137D02*
X0215983Y0145137D01*
X0216352Y0145936D02*
X0220003Y0145936D01*
X0219294Y0146734D02*
X0216722Y0146734D01*
X0217091Y0147533D02*
X0218783Y0147533D01*
X0218347Y0148331D02*
X0217460Y0148331D01*
X0217830Y0149130D02*
X0218004Y0149130D01*
X0212723Y0150727D02*
X0192717Y0150727D01*
X0193416Y0151525D02*
X0206124Y0151525D01*
X0204601Y0152324D02*
X0194116Y0152324D01*
X0194816Y0153122D02*
X0203553Y0153122D01*
X0202783Y0153921D02*
X0195516Y0153921D01*
X0196216Y0154719D02*
X0202159Y0154719D01*
X0201635Y0155518D02*
X0196915Y0155518D01*
X0197615Y0156316D02*
X0201259Y0156316D01*
X0200953Y0157115D02*
X0198315Y0157115D01*
X0199015Y0157913D02*
X0200723Y0157913D01*
X0200590Y0158712D02*
X0199715Y0158712D01*
X0200414Y0159510D02*
X0200494Y0159510D01*
X0195767Y0162704D02*
X0170411Y0162704D01*
X0189943Y0147533D02*
X0211290Y0147533D01*
X0211648Y0148331D02*
X0190617Y0148331D01*
X0191317Y0149130D02*
X0212007Y0149130D01*
X0212365Y0149928D02*
X0192017Y0149928D01*
X0189494Y0146734D02*
X0210931Y0146734D01*
X0210573Y0145936D02*
X0189104Y0145936D01*
X0175824Y0189854D02*
X0166599Y0189854D01*
X0169390Y0190652D02*
X0176024Y0190652D01*
X0176265Y0191451D02*
X0172180Y0191451D01*
X0174971Y0192249D02*
X0176646Y0192249D01*
X0173164Y0233772D02*
X0150875Y0233772D01*
X0151565Y0234570D02*
X0170507Y0234570D01*
X0167851Y0235369D02*
X0152431Y0235369D01*
X0153531Y0236167D02*
X0165195Y0236167D01*
X0162538Y0236966D02*
X0155102Y0236966D01*
X0155594Y0252936D02*
X0181760Y0252936D01*
X0180532Y0253735D02*
X0155727Y0253735D01*
X0155866Y0254533D02*
X0179304Y0254533D01*
X0178076Y0255332D02*
X0156139Y0255332D01*
X0156438Y0256130D02*
X0176847Y0256130D01*
X0175619Y0256929D02*
X0156902Y0256929D01*
X0157445Y0257727D02*
X0174391Y0257727D01*
X0173163Y0258526D02*
X0158095Y0258526D01*
X0158962Y0259324D02*
X0171935Y0259324D01*
X0170707Y0260123D02*
X0160054Y0260123D01*
X0161580Y0260921D02*
X0169279Y0260921D01*
X0170219Y0268906D02*
X0195453Y0268906D01*
X0194770Y0269705D02*
X0169936Y0269705D01*
X0169672Y0270503D02*
X0194086Y0270503D01*
X0193402Y0271302D02*
X0169535Y0271302D01*
X0169411Y0272100D02*
X0192719Y0272100D01*
X0192035Y0272899D02*
X0169401Y0272899D01*
X0169408Y0273698D02*
X0191351Y0273698D01*
X0190668Y0274496D02*
X0169524Y0274496D01*
X0169664Y0275295D02*
X0189984Y0275295D01*
X0189300Y0276093D02*
X0169912Y0276093D01*
X0170204Y0276892D02*
X0188617Y0276892D01*
X0187933Y0277690D02*
X0170598Y0277690D01*
X0171082Y0278489D02*
X0187249Y0278489D01*
X0186566Y0279287D02*
X0171646Y0279287D01*
X0172465Y0280086D02*
X0185882Y0280086D01*
X0184845Y0280884D02*
X0173486Y0280884D01*
X0174875Y0281683D02*
X0183466Y0281683D01*
X0180950Y0282481D02*
X0177263Y0282481D01*
X0211983Y0280086D02*
X0212917Y0280086D01*
X0217660Y0282481D02*
X0218162Y0282481D01*
X0218509Y0283280D02*
X0217291Y0283280D01*
X0216921Y0284078D02*
X0219016Y0284078D01*
X0219620Y0284877D02*
X0216552Y0284877D01*
X0216182Y0285675D02*
X0220359Y0285675D01*
X0221337Y0286474D02*
X0215813Y0286474D01*
X0215443Y0287272D02*
X0222729Y0287272D01*
X0235956Y0306436D02*
X0254288Y0306436D01*
X0253976Y0307235D02*
X0236269Y0307235D01*
X0236729Y0308034D02*
X0253516Y0308034D01*
X0253001Y0308832D02*
X0237243Y0308832D01*
X0237898Y0309631D02*
X0252346Y0309631D01*
X0251515Y0310429D02*
X0238729Y0310429D01*
X0239771Y0311228D02*
X0250473Y0311228D01*
X0249026Y0312026D02*
X0241219Y0312026D01*
X0244021Y0312825D02*
X0246224Y0312825D01*
X0247653Y0290466D02*
X0253130Y0290466D01*
X0253010Y0289668D02*
X0249572Y0289668D01*
X0250768Y0288869D02*
X0252890Y0288869D01*
X0252771Y0288071D02*
X0251676Y0288071D01*
X0252335Y0287272D02*
X0252651Y0287272D01*
X0258013Y0286474D02*
X0258489Y0286474D01*
X0258122Y0287272D02*
X0259891Y0287272D01*
X0319256Y0204227D02*
X0341302Y0204227D01*
X0341379Y0203429D02*
X0319034Y0203429D01*
X0318712Y0202630D02*
X0341343Y0202630D01*
X0341286Y0201831D02*
X0318293Y0201831D01*
X0317804Y0201033D02*
X0341090Y0201033D01*
X0340863Y0200234D02*
X0317127Y0200234D01*
X0316285Y0199436D02*
X0340527Y0199436D01*
X0340127Y0198637D02*
X0315180Y0198637D01*
X0315860Y0197839D02*
X0339632Y0197839D01*
X0338996Y0197040D02*
X0318516Y0197040D01*
X0321173Y0196242D02*
X0338248Y0196242D01*
X0337302Y0195443D02*
X0323829Y0195443D01*
X0326486Y0194645D02*
X0335999Y0194645D01*
X0333809Y0193846D02*
X0329142Y0193846D01*
X0326435Y0189055D02*
X0314527Y0189055D01*
X0314581Y0188649D02*
X0314387Y0190096D01*
X0313966Y0191494D01*
X0313327Y0192806D01*
X0328637Y0188425D01*
X0330029Y0187688D01*
X0331290Y0186743D01*
X0332387Y0185612D01*
X0333293Y0184323D01*
X0333987Y0182908D01*
X0334451Y0181403D01*
X0334673Y0179843D01*
X0334649Y0178267D01*
X0334379Y0176715D01*
X0333870Y0175224D01*
X0333079Y0173861D01*
X0332085Y0172639D01*
X0330911Y0171587D01*
X0329588Y0170732D01*
X0328147Y0170094D01*
X0326624Y0169690D01*
X0325057Y0169528D01*
X0323484Y0169614D01*
X0321943Y0169945D01*
X0320473Y0170513D01*
X0307123Y0179193D01*
X0308533Y0179572D01*
X0309864Y0180170D01*
X0311083Y0180974D01*
X0312158Y0181961D01*
X0313062Y0183108D01*
X0313772Y0184383D01*
X0314269Y0185756D01*
X0314541Y0187190D01*
X0314581Y0188649D01*
X0314570Y0188257D02*
X0328955Y0188257D01*
X0330336Y0187458D02*
X0314548Y0187458D01*
X0314440Y0186660D02*
X0331370Y0186660D01*
X0332145Y0185861D02*
X0314289Y0185861D01*
X0314018Y0185063D02*
X0332773Y0185063D01*
X0333322Y0184264D02*
X0313705Y0184264D01*
X0313261Y0183466D02*
X0333714Y0183466D01*
X0334061Y0182667D02*
X0312715Y0182667D01*
X0312057Y0181869D02*
X0334307Y0181869D01*
X0334498Y0181070D02*
X0311188Y0181070D01*
X0310018Y0180272D02*
X0334612Y0180272D01*
X0334668Y0179473D02*
X0308166Y0179473D01*
X0307920Y0178675D02*
X0334656Y0178675D01*
X0334581Y0177876D02*
X0309148Y0177876D01*
X0310376Y0177078D02*
X0334442Y0177078D01*
X0334230Y0176279D02*
X0311604Y0176279D01*
X0312832Y0175481D02*
X0333957Y0175481D01*
X0333555Y0174682D02*
X0314061Y0174682D01*
X0315289Y0173884D02*
X0333092Y0173884D01*
X0332447Y0173085D02*
X0316517Y0173085D01*
X0317745Y0172287D02*
X0331692Y0172287D01*
X0330758Y0171488D02*
X0318973Y0171488D01*
X0320201Y0170690D02*
X0329492Y0170690D01*
X0327383Y0169891D02*
X0322194Y0169891D01*
X0318211Y0165100D02*
X0300495Y0165100D01*
X0300814Y0165326D02*
X0299623Y0164482D01*
X0298313Y0163838D01*
X0296917Y0163412D01*
X0295471Y0163213D01*
X0294011Y0163248D01*
X0304368Y0151151D01*
X0305618Y0150192D01*
X0307002Y0149439D01*
X0308487Y0148913D01*
X0310036Y0148625D01*
X0311611Y0148583D01*
X0313174Y0148788D01*
X0314685Y0149235D01*
X0316107Y0149913D01*
X0317406Y0150805D01*
X0318549Y0151889D01*
X0319459Y0153175D01*
X0320157Y0154588D01*
X0320625Y0156093D01*
X0320851Y0157652D01*
X0320832Y0159227D01*
X0320565Y0160780D01*
X0320060Y0162273D01*
X0319327Y0163667D01*
X0318385Y0164930D01*
X0317257Y0166030D01*
X0303807Y0174556D01*
X0304049Y0173116D01*
X0304059Y0171657D01*
X0303836Y0170214D01*
X0303386Y0168825D01*
X0302720Y0167526D01*
X0301855Y0166350D01*
X0300814Y0165326D01*
X0301396Y0165898D02*
X0317392Y0165898D01*
X0316205Y0166697D02*
X0302110Y0166697D01*
X0302697Y0167496D02*
X0314945Y0167496D01*
X0313686Y0168294D02*
X0303113Y0168294D01*
X0303472Y0169093D02*
X0312426Y0169093D01*
X0311166Y0169891D02*
X0303731Y0169891D01*
X0303909Y0170690D02*
X0309906Y0170690D01*
X0308647Y0171488D02*
X0304033Y0171488D01*
X0304055Y0172287D02*
X0307387Y0172287D01*
X0306127Y0173085D02*
X0304049Y0173085D01*
X0303920Y0173884D02*
X0304867Y0173884D01*
X0299256Y0164301D02*
X0318854Y0164301D01*
X0319413Y0163503D02*
X0297216Y0163503D01*
X0295160Y0161906D02*
X0320184Y0161906D01*
X0320455Y0161107D02*
X0295844Y0161107D01*
X0296528Y0160309D02*
X0320646Y0160309D01*
X0320783Y0159510D02*
X0297211Y0159510D01*
X0297895Y0158712D02*
X0320838Y0158712D01*
X0320848Y0157913D02*
X0298579Y0157913D01*
X0299262Y0157115D02*
X0320773Y0157115D01*
X0320657Y0156316D02*
X0299946Y0156316D01*
X0300630Y0155518D02*
X0320446Y0155518D01*
X0320198Y0154719D02*
X0301313Y0154719D01*
X0301997Y0153921D02*
X0319827Y0153921D01*
X0319422Y0153122D02*
X0302681Y0153122D01*
X0303364Y0152324D02*
X0318857Y0152324D01*
X0318166Y0151525D02*
X0304048Y0151525D01*
X0304921Y0150727D02*
X0317292Y0150727D01*
X0316130Y0149928D02*
X0306103Y0149928D01*
X0307876Y0149130D02*
X0314328Y0149130D01*
X0302074Y0144763D02*
X0302383Y0143218D01*
X0302447Y0141643D01*
X0302264Y0140079D01*
X0301838Y0138562D01*
X0301181Y0137130D01*
X0300307Y0135819D01*
X0299239Y0134660D01*
X0298003Y0133683D01*
X0296600Y0132966D01*
X0295102Y0132477D01*
X0293546Y0132228D01*
X0291970Y0132226D01*
X0290414Y0132471D01*
X0288915Y0132956D01*
X0287510Y0133669D01*
X0286234Y0134593D01*
X0285118Y0135706D01*
X0284190Y0136980D01*
X0277670Y0151508D01*
X0279061Y0151063D01*
X0280504Y0150845D01*
X0281964Y0150860D01*
X0283402Y0151107D01*
X0284783Y0151581D01*
X0286071Y0152269D01*
X0287232Y0153153D01*
X0288238Y0154212D01*
X0289062Y0155417D01*
X0289683Y0156738D01*
X0290086Y0158141D01*
X0290260Y0159590D01*
X0300755Y0147614D01*
X0301527Y0146240D01*
X0302074Y0144763D01*
X0301935Y0145137D02*
X0280529Y0145137D01*
X0280888Y0144339D02*
X0302159Y0144339D01*
X0302319Y0143540D02*
X0281246Y0143540D01*
X0281604Y0142742D02*
X0302403Y0142742D01*
X0302435Y0141943D02*
X0281963Y0141943D01*
X0282321Y0141145D02*
X0302389Y0141145D01*
X0302295Y0140346D02*
X0282679Y0140346D01*
X0283038Y0139548D02*
X0302115Y0139548D01*
X0301891Y0138749D02*
X0283396Y0138749D01*
X0283754Y0137951D02*
X0301558Y0137951D01*
X0301191Y0137152D02*
X0284113Y0137152D01*
X0284646Y0136354D02*
X0300663Y0136354D01*
X0300064Y0135555D02*
X0285270Y0135555D01*
X0286070Y0134757D02*
X0299328Y0134757D01*
X0298351Y0133958D02*
X0287111Y0133958D01*
X0288513Y0133160D02*
X0296979Y0133160D01*
X0294376Y0132361D02*
X0291112Y0132361D01*
X0279471Y0131765D02*
X0279363Y0133337D01*
X0279011Y0134873D01*
X0272324Y0149325D01*
X0271748Y0147984D01*
X0270965Y0146751D01*
X0269996Y0145660D01*
X0268865Y0144736D01*
X0267602Y0144005D01*
X0266238Y0143485D01*
X0264809Y0143188D01*
X0263350Y0143124D01*
X0261900Y0143292D01*
X0260496Y0143690D01*
X0259172Y0144306D01*
X0257964Y0145126D01*
X0260117Y0129348D01*
X0260648Y0127864D01*
X0261404Y0126482D01*
X0262367Y0125235D01*
X0263513Y0124154D01*
X0264814Y0123266D01*
X0266239Y0122592D01*
X0267751Y0122149D01*
X0269314Y0121948D01*
X0270889Y0121994D01*
X0272437Y0122286D01*
X0273899Y0122874D01*
X0275250Y0123684D01*
X0276459Y0124695D01*
X0277494Y0125883D01*
X0278331Y0127218D01*
X0278948Y0128668D01*
X0279331Y0130196D01*
X0279471Y0131765D01*
X0279453Y0131563D02*
X0259815Y0131563D01*
X0259706Y0132361D02*
X0279430Y0132361D01*
X0279375Y0133160D02*
X0259597Y0133160D01*
X0259488Y0133958D02*
X0279221Y0133958D01*
X0279038Y0134757D02*
X0259379Y0134757D01*
X0259270Y0135555D02*
X0278695Y0135555D01*
X0278326Y0136354D02*
X0259161Y0136354D01*
X0259052Y0137152D02*
X0277956Y0137152D01*
X0277587Y0137951D02*
X0258943Y0137951D01*
X0258834Y0138749D02*
X0277217Y0138749D01*
X0276848Y0139548D02*
X0258726Y0139548D01*
X0258617Y0140346D02*
X0276478Y0140346D01*
X0276109Y0141145D02*
X0258508Y0141145D01*
X0258399Y0141943D02*
X0275739Y0141943D01*
X0275370Y0142742D02*
X0258290Y0142742D01*
X0258181Y0143540D02*
X0261025Y0143540D01*
X0259125Y0144339D02*
X0258072Y0144339D01*
X0252716Y0143540D02*
X0251979Y0143540D01*
X0251186Y0142742D02*
X0252835Y0142742D01*
X0252955Y0141943D02*
X0250157Y0141943D01*
X0248664Y0141145D02*
X0253075Y0141145D01*
X0259924Y0130764D02*
X0279382Y0130764D01*
X0279274Y0129965D02*
X0260033Y0129965D01*
X0260182Y0129167D02*
X0279073Y0129167D01*
X0278821Y0128368D02*
X0260467Y0128368D01*
X0260809Y0127570D02*
X0278481Y0127570D01*
X0278051Y0126771D02*
X0261246Y0126771D01*
X0261797Y0125973D02*
X0277550Y0125973D01*
X0276876Y0125174D02*
X0262431Y0125174D01*
X0263278Y0124376D02*
X0276077Y0124376D01*
X0275072Y0123577D02*
X0264358Y0123577D01*
X0265843Y0122779D02*
X0273662Y0122779D01*
X0270426Y0121980D02*
X0269061Y0121980D01*
X0266384Y0143540D02*
X0275001Y0143540D01*
X0274631Y0144339D02*
X0268178Y0144339D01*
X0269356Y0145137D02*
X0274262Y0145137D01*
X0273892Y0145936D02*
X0270241Y0145936D01*
X0270950Y0146734D02*
X0273523Y0146734D01*
X0273153Y0147533D02*
X0271461Y0147533D01*
X0271897Y0148331D02*
X0272784Y0148331D01*
X0272414Y0149130D02*
X0272240Y0149130D01*
X0278021Y0150727D02*
X0298028Y0150727D01*
X0298727Y0149928D02*
X0278379Y0149928D01*
X0278738Y0149130D02*
X0299427Y0149130D01*
X0300127Y0148331D02*
X0279096Y0148331D01*
X0279454Y0147533D02*
X0300801Y0147533D01*
X0301250Y0146734D02*
X0279813Y0146734D01*
X0280171Y0145936D02*
X0301640Y0145936D01*
X0297328Y0151525D02*
X0284620Y0151525D01*
X0286143Y0152324D02*
X0296628Y0152324D01*
X0295928Y0153122D02*
X0287191Y0153122D01*
X0287961Y0153921D02*
X0295228Y0153921D01*
X0294529Y0154719D02*
X0288585Y0154719D01*
X0289109Y0155518D02*
X0293829Y0155518D01*
X0293129Y0156316D02*
X0289485Y0156316D01*
X0289791Y0157115D02*
X0292429Y0157115D01*
X0291729Y0157913D02*
X0290021Y0157913D01*
X0290154Y0158712D02*
X0291030Y0158712D01*
X0290330Y0159510D02*
X0290250Y0159510D01*
X0294477Y0162704D02*
X0319833Y0162704D01*
X0323645Y0189854D02*
X0314420Y0189854D01*
X0314220Y0190652D02*
X0320854Y0190652D01*
X0318064Y0191451D02*
X0313979Y0191451D01*
X0313598Y0192249D02*
X0315274Y0192249D01*
D19*
G36*
X0321168Y0182826D02*
X0326445Y0180420D01*
X0325076Y0177418D01*
X0319799Y0179824D01*
X0321168Y0182826D01*
G37*
G36*
X0326987Y0205668D02*
X0332727Y0204841D01*
X0332257Y0201576D01*
X0326517Y0202403D01*
X0326987Y0205668D01*
G37*
G36*
X0326517Y0228841D02*
X0332257Y0229668D01*
X0332727Y0226403D01*
X0326987Y0225576D01*
X0326517Y0228841D01*
G37*
G36*
X0319789Y0251269D02*
X0324951Y0253911D01*
X0326455Y0250975D01*
X0321293Y0248333D01*
X0319789Y0251269D01*
G37*
G36*
X0306350Y0270971D02*
X0310733Y0274767D01*
X0312894Y0272273D01*
X0308511Y0268477D01*
X0306350Y0270971D01*
G37*
G36*
X0288667Y0286074D02*
X0291800Y0290953D01*
X0294577Y0289170D01*
X0291444Y0284291D01*
X0288667Y0286074D01*
G37*
G36*
X0266725Y0295302D02*
X0268353Y0300868D01*
X0271519Y0299942D01*
X0269891Y0294376D01*
X0266725Y0295302D01*
G37*
G36*
X0220353Y0294376D02*
X0218725Y0299942D01*
X0221891Y0300868D01*
X0223519Y0295302D01*
X0220353Y0294376D01*
G37*
G36*
X0199300Y0284291D02*
X0196167Y0289170D01*
X0198944Y0290953D01*
X0202077Y0286074D01*
X0199300Y0284291D01*
G37*
G36*
X0181733Y0268477D02*
X0177350Y0272273D01*
X0179511Y0274767D01*
X0183894Y0270971D01*
X0181733Y0268477D01*
G37*
G36*
X0169076Y0248418D02*
X0163799Y0250824D01*
X0165168Y0253826D01*
X0170445Y0251420D01*
X0169076Y0248418D01*
G37*
G36*
X0163257Y0225576D02*
X0157517Y0226403D01*
X0157987Y0229668D01*
X0163727Y0228841D01*
X0163257Y0225576D01*
G37*
G36*
X0163727Y0202403D02*
X0157987Y0201576D01*
X0157517Y0204841D01*
X0163257Y0205668D01*
X0163727Y0202403D01*
G37*
G36*
X0170445Y0179824D02*
X0165168Y0177418D01*
X0163799Y0180420D01*
X0169076Y0182826D01*
X0170445Y0179824D01*
G37*
G36*
X0183894Y0160273D02*
X0179511Y0156477D01*
X0177350Y0158971D01*
X0181733Y0162767D01*
X0183894Y0160273D01*
G37*
G36*
X0202077Y0145170D02*
X0198944Y0140291D01*
X0196167Y0142074D01*
X0199300Y0146953D01*
X0202077Y0145170D01*
G37*
G36*
X0223519Y0135942D02*
X0221891Y0130376D01*
X0218725Y0131302D01*
X0220353Y0136868D01*
X0223519Y0135942D01*
G37*
G36*
X0269891Y0136868D02*
X0271519Y0131302D01*
X0268353Y0130376D01*
X0266725Y0135942D01*
X0269891Y0136868D01*
G37*
G36*
X0291444Y0146953D02*
X0294577Y0142074D01*
X0291800Y0140291D01*
X0288667Y0145170D01*
X0291444Y0146953D01*
G37*
G36*
X0308511Y0162767D02*
X0312894Y0158971D01*
X0310733Y0156477D01*
X0306350Y0160273D01*
X0308511Y0162767D01*
G37*
D20*
X0245122Y0130122D03*
X0245122Y0301122D03*
D21*
X0245122Y0277622D03*
X0254622Y0269122D03*
X0267622Y0251122D03*
X0284122Y0258622D03*
X0295622Y0308122D03*
X0215122Y0333122D03*
X0162122Y0271622D03*
X0147122Y0257622D03*
X0112122Y0262622D03*
X0120122Y0305122D03*
X0186122Y0225122D03*
X0145622Y0196122D03*
X0198622Y0172122D03*
X0228622Y0191122D03*
X0239622Y0201622D03*
X0241122Y0179622D03*
X0270122Y0174122D03*
X0252122Y0149122D03*
X0296622Y0124122D03*
X0301122Y0186622D03*
X0341622Y0186622D03*
X0197622Y0123122D03*
X0169122Y0125622D03*
X0167622Y0141622D03*
M02*
