G75*
%MOIN*%
%OFA0B0*%
%FSLAX25Y25*%
%IPPOS*%
%LPD*%
%AMOC8*
5,1,8,0,0,1.08239X$1,22.5*
%
%ADD10C,0.00600*%
%ADD11C,0.00900*%
%ADD12C,0.00800*%
D10*
X0191328Y0169294D02*
X0192062Y0168560D01*
X0193529Y0168560D01*
X0194263Y0169294D01*
X0194263Y0170028D01*
X0193529Y0170762D01*
X0191328Y0170762D01*
X0191328Y0169294D01*
X0191328Y0170762D02*
X0192795Y0172230D01*
X0194263Y0172964D01*
X0182624Y0184422D02*
X0181156Y0184422D01*
X0180422Y0185156D01*
X0180422Y0186624D02*
X0181890Y0187358D01*
X0182624Y0187358D01*
X0183358Y0186624D01*
X0183358Y0185156D01*
X0182624Y0184422D01*
X0180422Y0186624D02*
X0180422Y0188826D01*
X0183358Y0188826D01*
X0206446Y0159302D02*
X0209382Y0159302D01*
X0209382Y0158568D01*
X0206446Y0155632D01*
X0206446Y0154898D01*
X0223887Y0150301D02*
X0223887Y0149567D01*
X0224621Y0148833D01*
X0226088Y0148833D01*
X0226822Y0148099D01*
X0226822Y0147365D01*
X0226088Y0146631D01*
X0224621Y0146631D01*
X0223887Y0147365D01*
X0223887Y0148099D01*
X0224621Y0148833D01*
X0226088Y0148833D02*
X0226822Y0149567D01*
X0226822Y0150301D01*
X0226088Y0151034D01*
X0224621Y0151034D01*
X0223887Y0150301D01*
X0243965Y0147112D02*
X0243965Y0146378D01*
X0244699Y0145644D01*
X0246901Y0145644D01*
X0246901Y0144176D02*
X0246901Y0147112D01*
X0246167Y0147845D01*
X0244699Y0147845D01*
X0243965Y0147112D01*
X0243965Y0144176D02*
X0244699Y0143442D01*
X0246167Y0143442D01*
X0246901Y0144176D01*
X0261603Y0147339D02*
X0264539Y0147339D01*
X0263071Y0147339D02*
X0263071Y0151743D01*
X0261603Y0150275D01*
X0266207Y0151009D02*
X0266207Y0148073D01*
X0269143Y0151009D01*
X0269143Y0148073D01*
X0268409Y0147339D01*
X0266941Y0147339D01*
X0266207Y0148073D01*
X0266207Y0151009D02*
X0266941Y0151743D01*
X0268409Y0151743D01*
X0269143Y0151009D01*
X0279123Y0155725D02*
X0282059Y0155725D01*
X0280591Y0155725D02*
X0280591Y0160129D01*
X0279123Y0158661D01*
X0283727Y0158661D02*
X0285195Y0160129D01*
X0285195Y0155725D01*
X0283727Y0155725D02*
X0286663Y0155725D01*
X0292902Y0169426D02*
X0295838Y0169426D01*
X0294370Y0169426D02*
X0294370Y0173830D01*
X0292902Y0172362D01*
X0297506Y0173096D02*
X0298240Y0173830D01*
X0299708Y0173830D01*
X0300442Y0173096D01*
X0300442Y0172362D01*
X0297506Y0169426D01*
X0300442Y0169426D01*
X0303422Y0185422D02*
X0306358Y0185422D01*
X0304890Y0185422D02*
X0304890Y0189826D01*
X0303422Y0188358D01*
X0308026Y0189092D02*
X0308760Y0189826D01*
X0310228Y0189826D01*
X0310962Y0189092D01*
X0310962Y0188358D01*
X0310228Y0187624D01*
X0310962Y0186890D01*
X0310962Y0186156D01*
X0310228Y0185422D01*
X0308760Y0185422D01*
X0308026Y0186156D01*
X0309494Y0187624D02*
X0310228Y0187624D01*
X0309148Y0203678D02*
X0308414Y0204412D01*
X0309148Y0205146D01*
X0311350Y0205146D01*
X0311350Y0205880D02*
X0311350Y0203678D01*
X0309148Y0203678D01*
X0309148Y0206614D02*
X0310616Y0206614D01*
X0311350Y0205880D01*
X0313018Y0207348D02*
X0313752Y0208082D01*
X0315220Y0208082D01*
X0315954Y0207348D01*
X0313018Y0204412D01*
X0313752Y0203678D01*
X0315220Y0203678D01*
X0315954Y0204412D01*
X0315954Y0207348D01*
X0313018Y0207348D02*
X0313018Y0204412D01*
X0313412Y0223717D02*
X0316348Y0223717D01*
X0314880Y0223717D02*
X0314880Y0228121D01*
X0313412Y0226653D01*
X0311744Y0225919D02*
X0311744Y0223717D01*
X0309542Y0223717D01*
X0308808Y0224451D01*
X0309542Y0225185D01*
X0311744Y0225185D01*
X0311744Y0225919D02*
X0311010Y0226653D01*
X0309542Y0226653D01*
X0310481Y0241828D02*
X0307546Y0241828D01*
X0310481Y0244763D01*
X0310481Y0245497D01*
X0309748Y0246231D01*
X0308280Y0246231D01*
X0307546Y0245497D01*
X0305878Y0244029D02*
X0305144Y0244763D01*
X0303676Y0244763D01*
X0303676Y0243295D02*
X0305878Y0243295D01*
X0305878Y0244029D02*
X0305878Y0241828D01*
X0303676Y0241828D01*
X0302942Y0242562D01*
X0303676Y0243295D01*
X0299196Y0258520D02*
X0297728Y0258520D01*
X0296994Y0259254D01*
X0295326Y0258520D02*
X0295326Y0260722D01*
X0294592Y0261456D01*
X0293125Y0261456D01*
X0293125Y0259988D02*
X0295326Y0259988D01*
X0295326Y0258520D02*
X0293125Y0258520D01*
X0292391Y0259254D01*
X0293125Y0259988D01*
X0296994Y0262190D02*
X0297728Y0262924D01*
X0299196Y0262924D01*
X0299930Y0262190D01*
X0299930Y0261456D01*
X0299196Y0260722D01*
X0299930Y0259988D01*
X0299930Y0259254D01*
X0299196Y0258520D01*
X0299196Y0260722D02*
X0298462Y0260722D01*
X0284787Y0271198D02*
X0284787Y0275601D01*
X0282585Y0273400D01*
X0285521Y0273400D01*
X0280917Y0273400D02*
X0280917Y0271198D01*
X0278715Y0271198D01*
X0277981Y0271932D01*
X0278715Y0272666D01*
X0280917Y0272666D01*
X0280917Y0273400D02*
X0280183Y0274133D01*
X0278715Y0274133D01*
X0268080Y0280239D02*
X0267346Y0279505D01*
X0265878Y0279505D01*
X0265144Y0280239D01*
X0265144Y0281707D02*
X0266612Y0282441D01*
X0267346Y0282441D01*
X0268080Y0281707D01*
X0268080Y0280239D01*
X0265144Y0281707D02*
X0265144Y0283908D01*
X0268080Y0283908D01*
X0263476Y0281707D02*
X0263476Y0279505D01*
X0261274Y0279505D01*
X0260540Y0280239D01*
X0261274Y0280973D01*
X0263476Y0280973D01*
X0263476Y0281707D02*
X0262742Y0282441D01*
X0261274Y0282441D01*
X0253402Y0283858D02*
X0250466Y0280922D01*
X0250466Y0283858D02*
X0253402Y0280922D01*
X0248832Y0283858D02*
X0248098Y0283858D01*
X0246630Y0282390D01*
X0246630Y0280922D02*
X0246630Y0283858D01*
X0244962Y0285326D02*
X0242026Y0280922D01*
X0240358Y0281656D02*
X0239624Y0280922D01*
X0238156Y0280922D01*
X0237422Y0281656D01*
X0240358Y0284592D01*
X0240358Y0281656D01*
X0240358Y0284592D02*
X0239624Y0285326D01*
X0238156Y0285326D01*
X0237422Y0284592D01*
X0237422Y0281656D01*
X0234296Y0280630D02*
X0231361Y0277694D01*
X0229759Y0277694D02*
X0229025Y0278428D01*
X0229025Y0281363D01*
X0228291Y0280630D02*
X0229759Y0280630D01*
X0231361Y0280630D02*
X0234296Y0277694D01*
X0226623Y0282097D02*
X0223687Y0277694D01*
X0222019Y0277694D02*
X0219083Y0277694D01*
X0220551Y0277694D02*
X0220551Y0282097D01*
X0219083Y0280630D01*
X0209224Y0275891D02*
X0208490Y0276625D01*
X0207022Y0276625D01*
X0206288Y0275891D01*
X0209224Y0275891D02*
X0209224Y0275157D01*
X0206288Y0272221D01*
X0209224Y0272221D01*
X0194263Y0262505D02*
X0194263Y0261771D01*
X0193529Y0261037D01*
X0194263Y0260303D01*
X0194263Y0259569D01*
X0193529Y0258835D01*
X0192062Y0258835D01*
X0191328Y0259569D01*
X0192795Y0261037D02*
X0193529Y0261037D01*
X0194263Y0262505D02*
X0193529Y0263239D01*
X0192062Y0263239D01*
X0191328Y0262505D01*
X0182388Y0246901D02*
X0180186Y0244699D01*
X0183122Y0244699D01*
X0182388Y0242497D02*
X0182388Y0246901D01*
D11*
X0177975Y0226124D02*
X0174572Y0226124D01*
X0176840Y0207963D02*
X0176840Y0204561D01*
X0175139Y0206262D02*
X0178542Y0206262D01*
D12*
X0117024Y0143406D02*
X0113874Y0143406D01*
X0113874Y0157185D01*
X0117024Y0153248D02*
X0121748Y0153248D01*
X0117024Y0153248D02*
X0117024Y0143406D01*
X0137496Y0153248D02*
X0142220Y0153248D01*
X0142220Y0143406D01*
X0145370Y0143406D01*
X0145370Y0157185D01*
X0137496Y0172933D02*
X0121748Y0172933D01*
X0121173Y0196685D02*
X0126685Y0196685D01*
X0129441Y0198260D02*
X0131803Y0200622D01*
X0129441Y0202984D01*
X0129441Y0198260D01*
X0131803Y0197866D02*
X0131803Y0200622D01*
X0131803Y0203378D01*
X0134559Y0204559D02*
X0140071Y0204559D01*
X0140071Y0196685D01*
X0134559Y0196685D01*
X0126685Y0204559D02*
X0121173Y0204559D01*
X0121173Y0196685D01*
X0116559Y0209673D02*
X0108685Y0209673D01*
X0108685Y0215185D01*
X0110260Y0217941D02*
X0114984Y0217941D01*
X0112622Y0220303D01*
X0110260Y0217941D01*
X0109866Y0220303D02*
X0112622Y0220303D01*
X0115378Y0220303D01*
X0116559Y0223059D02*
X0116559Y0228571D01*
X0108685Y0228571D01*
X0108685Y0223059D01*
X0116559Y0215185D02*
X0116559Y0209673D01*
X0121673Y0236685D02*
X0127185Y0236685D01*
X0129941Y0238260D02*
X0132303Y0240622D01*
X0129941Y0242984D01*
X0129941Y0238260D01*
X0132303Y0237866D02*
X0132303Y0240622D01*
X0132303Y0243378D01*
X0135059Y0244559D02*
X0140571Y0244559D01*
X0140571Y0236685D01*
X0135059Y0236685D01*
X0127185Y0244559D02*
X0121673Y0244559D01*
X0121673Y0236685D01*
X0127673Y0322685D02*
X0133185Y0322685D01*
X0135941Y0324260D02*
X0138303Y0326622D01*
X0135941Y0328984D01*
X0135941Y0324260D01*
X0138303Y0323866D02*
X0138303Y0326622D01*
X0138303Y0329378D01*
X0141059Y0330559D02*
X0146571Y0330559D01*
X0146571Y0322685D01*
X0141059Y0322685D01*
X0133185Y0330559D02*
X0127673Y0330559D01*
X0127673Y0322685D01*
X0219685Y0325559D02*
X0219685Y0331071D01*
X0227559Y0331071D01*
X0227559Y0325559D01*
X0226378Y0322803D02*
X0223622Y0322803D01*
X0225984Y0320441D01*
X0221260Y0320441D01*
X0223622Y0322803D01*
X0220866Y0322803D01*
X0219685Y0317685D02*
X0219685Y0312173D01*
X0227559Y0312173D01*
X0227559Y0317685D01*
X0235673Y0336685D02*
X0241185Y0336685D01*
X0243941Y0338260D02*
X0246303Y0340622D01*
X0243941Y0342984D01*
X0243941Y0338260D01*
X0246303Y0337866D02*
X0246303Y0340622D01*
X0246303Y0343378D01*
X0249059Y0344559D02*
X0254571Y0344559D01*
X0254571Y0336685D01*
X0249059Y0336685D01*
X0241185Y0344559D02*
X0235673Y0344559D01*
X0235673Y0336685D01*
X0262685Y0331071D02*
X0262685Y0325559D01*
X0263866Y0322803D02*
X0266622Y0322803D01*
X0268984Y0320441D01*
X0264260Y0320441D01*
X0266622Y0322803D01*
X0269378Y0322803D01*
X0270559Y0325559D02*
X0270559Y0331071D01*
X0262685Y0331071D01*
X0262685Y0317685D02*
X0262685Y0312173D01*
X0270559Y0312173D01*
X0270559Y0317685D01*
X0308508Y0316764D02*
X0308508Y0334480D01*
X0316185Y0334480D01*
X0316185Y0332512D01*
X0324059Y0332512D01*
X0324059Y0334480D01*
X0331736Y0334480D01*
X0331736Y0316764D01*
X0308508Y0316764D01*
X0343508Y0316764D02*
X0343508Y0334480D01*
X0351185Y0334480D01*
X0351185Y0332512D01*
X0359059Y0332512D01*
X0359059Y0334480D01*
X0366736Y0334480D01*
X0366736Y0316764D01*
X0343508Y0316764D01*
X0346264Y0307236D02*
X0363980Y0307236D01*
X0363980Y0299559D01*
X0362012Y0299559D01*
X0362012Y0291685D01*
X0363980Y0291685D01*
X0363980Y0284008D01*
X0346264Y0284008D01*
X0346264Y0307236D01*
X0350673Y0244559D02*
X0350673Y0236685D01*
X0356185Y0236685D01*
X0358941Y0238260D02*
X0361303Y0240622D01*
X0358941Y0242984D01*
X0358941Y0238260D01*
X0361303Y0237866D02*
X0361303Y0240622D01*
X0361303Y0243378D01*
X0364059Y0244559D02*
X0369571Y0244559D01*
X0369571Y0236685D01*
X0364059Y0236685D01*
X0356185Y0244559D02*
X0350673Y0244559D01*
X0377185Y0228571D02*
X0377185Y0223059D01*
X0378366Y0220303D02*
X0381122Y0220303D01*
X0383484Y0217941D01*
X0378760Y0217941D01*
X0381122Y0220303D01*
X0383878Y0220303D01*
X0385059Y0223059D02*
X0385059Y0228571D01*
X0377185Y0228571D01*
X0377185Y0215185D02*
X0377185Y0209673D01*
X0385059Y0209673D01*
X0385059Y0215185D01*
X0369571Y0204559D02*
X0369571Y0196685D01*
X0364059Y0196685D01*
X0361303Y0197866D02*
X0361303Y0200622D01*
X0358941Y0198260D01*
X0358941Y0202984D01*
X0361303Y0200622D01*
X0361303Y0203378D01*
X0364059Y0204559D02*
X0369571Y0204559D01*
X0356185Y0204559D02*
X0350673Y0204559D01*
X0350673Y0196685D01*
X0356185Y0196685D01*
X0279622Y0112122D02*
X0274622Y0112122D01*
X0272122Y0109622D01*
X0272122Y0104622D01*
X0269622Y0102122D01*
X0264622Y0102122D01*
X0262122Y0104622D01*
X0262122Y0109622D01*
X0264622Y0112122D01*
X0269622Y0112122D01*
X0272122Y0109622D01*
X0272122Y0104622D02*
X0274622Y0102122D01*
X0279622Y0102122D01*
X0282122Y0104622D01*
X0282122Y0109622D01*
X0279622Y0112122D01*
X0262122Y0109622D02*
X0259622Y0112122D01*
X0254622Y0112122D01*
X0252122Y0109622D01*
X0252122Y0104622D01*
X0249622Y0102122D01*
X0244622Y0102122D01*
X0242122Y0104622D01*
X0242122Y0109622D01*
X0244622Y0112122D01*
X0249622Y0112122D01*
X0252122Y0109622D01*
X0252122Y0104622D02*
X0254622Y0102122D01*
X0259622Y0102122D01*
X0262122Y0104622D01*
X0242122Y0104622D02*
X0239622Y0102122D01*
X0234622Y0102122D01*
X0232122Y0104622D01*
X0232122Y0109622D01*
X0234622Y0112122D01*
X0239622Y0112122D01*
X0242122Y0109622D01*
X0232122Y0109622D02*
X0229622Y0112122D01*
X0224622Y0112122D01*
X0222122Y0109622D01*
X0222122Y0104622D01*
X0224622Y0102122D01*
X0229622Y0102122D01*
X0232122Y0104622D01*
M02*
