G75*
%MOIN*%
%OFA0B0*%
%FSLAX25Y25*%
%IPPOS*%
%LPD*%
%AMOC8*
5,1,8,0,0,1.08239X$1,22.5*
%
%ADD10C,0.06299*%
%ADD11C,0.07400*%
%ADD12C,0.04362*%
%ADD13C,0.01600*%
D10*
X0357287Y0291685D03*
X0357287Y0299559D03*
X0359059Y0327787D03*
X0351185Y0327787D03*
X0324059Y0327787D03*
X0316185Y0327787D03*
D11*
X0277122Y0106622D03*
X0267122Y0107622D03*
X0257122Y0106622D03*
X0247122Y0107622D03*
X0237122Y0106622D03*
X0227122Y0107622D03*
D12*
X0167622Y0141622D03*
X0169122Y0125622D03*
X0197622Y0123122D03*
X0198622Y0172122D03*
X0228622Y0191122D03*
X0239622Y0201622D03*
X0241122Y0179622D03*
X0270122Y0174122D03*
X0252122Y0149122D03*
X0296622Y0124122D03*
X0301122Y0186622D03*
X0341622Y0186622D03*
X0267622Y0251122D03*
X0284122Y0258622D03*
X0254622Y0269122D03*
X0245122Y0277622D03*
X0295622Y0308122D03*
X0215122Y0333122D03*
X0162122Y0271622D03*
X0147122Y0257622D03*
X0112122Y0262622D03*
X0120122Y0305122D03*
X0186122Y0225122D03*
X0145622Y0196122D03*
D13*
X0157122Y0196122D01*
X0186122Y0225122D01*
X0162122Y0257622D02*
X0228622Y0191122D01*
X0233122Y0195122D02*
X0239622Y0201622D01*
X0233122Y0195122D02*
X0233122Y0184622D01*
X0185122Y0136622D01*
X0177122Y0136622D01*
X0169122Y0128622D01*
X0169122Y0125622D01*
X0167622Y0141622D02*
X0179122Y0141622D01*
X0198622Y0161122D01*
X0198622Y0172122D01*
X0197622Y0136122D02*
X0241122Y0179622D01*
X0269622Y0174622D02*
X0270122Y0174122D01*
X0269622Y0174622D02*
X0269622Y0213622D01*
X0178122Y0305122D01*
X0120122Y0305122D01*
X0121122Y0271622D02*
X0112122Y0262622D01*
X0121122Y0271622D02*
X0162122Y0271622D01*
X0162122Y0257622D02*
X0147122Y0257622D01*
X0215122Y0333122D02*
X0237622Y0310622D01*
X0237622Y0254622D01*
X0276122Y0216122D01*
X0276122Y0173122D01*
X0252122Y0149122D01*
X0280622Y0130122D02*
X0257122Y0106622D01*
X0267122Y0107622D02*
X0285122Y0125622D01*
X0285122Y0225622D01*
X0254622Y0256122D01*
X0254622Y0269122D01*
X0245122Y0277622D02*
X0245122Y0254622D01*
X0280622Y0219122D01*
X0280622Y0130122D01*
X0294622Y0126122D02*
X0296622Y0124122D01*
X0294622Y0126122D02*
X0294622Y0223622D01*
X0267622Y0250622D01*
X0267622Y0251122D01*
X0284122Y0258622D02*
X0284122Y0296622D01*
X0295622Y0308122D01*
X0301122Y0186622D02*
X0341622Y0186622D01*
X0197622Y0136122D02*
X0197622Y0123122D01*
M02*
