%
M48
M72
T01C0.02362
T02C0.02756
T03C0.04000
%
T01
X167622Y141622
X169122Y125622
X197622Y123122
X198622Y172122
X228622Y191122
X239622Y201622
X241122Y179622
X270122Y174122
X252122Y149122
X296622Y124122
X301122Y186622
X341622Y186622
X267622Y251122
X284122Y258622
X254622Y269122
X245122Y277622
X295622Y308122
X215122Y333122
X162122Y271622
X147122Y257622
X112122Y262622
X120122Y305122
X186122Y225122
X145622Y196122
T02
X316185Y327787
X324059Y327787
X351185Y327787
X359059Y327787
X357287Y299559
X357287Y291685
T03
X277122Y106622
X267122Y107622
X257122Y106622
X247122Y107622
X237122Y106622
X227122Y107622
M30
