%
M48
M72
T01C0.02362
T02C0.02756
T03C0.04000
%
T01
X167622Y141622
X169122Y125622
X197622Y123122
X245122Y159122
X241122Y179622
X211122Y170622
X198622Y172122
X145622Y196122
X186122Y225122
X147122Y257622
X162122Y271622
X112122Y262622
X215122Y333122
X245122Y277622
X254122Y255622
X267622Y251122
X284122Y258622
X295622Y308122
X249122Y211622
X301122Y186622
X341622Y186622
X287122Y126122
T02
X291622Y171122
X248122Y221622
X214622Y179122
X114957Y300185
X114957Y308059
X116685Y333287
X124559Y333287
X146185Y333287
X154059Y333287
X344122Y301622
T03
X277122Y106622
X267122Y107622
X257122Y106622
X247122Y107622
X237122Y106622
X227122Y107622
M30
