G75*
%MOIN*%
%OFA0B0*%
%FSLAX25Y25*%
%IPPOS*%
%LPD*%
%AMOC8*
5,1,8,0,0,1.08239X$1,22.5*
%
%ADD10C,0.06299*%
%ADD11C,0.07400*%
%ADD12C,0.04756*%
%ADD13C,0.01600*%
%ADD14C,0.04362*%
D10*
X0114957Y0300185D03*
X0114957Y0308059D03*
X0116685Y0333287D03*
X0124559Y0333287D03*
X0146185Y0333287D03*
X0154059Y0333287D03*
D11*
X0227122Y0107622D03*
X0237122Y0106622D03*
X0247122Y0107622D03*
X0257122Y0106622D03*
X0267122Y0107622D03*
X0277122Y0106622D03*
D12*
X0291622Y0171122D03*
X0248122Y0221622D03*
X0214622Y0179122D03*
X0344122Y0301622D03*
D13*
X0344122Y0242622D01*
X0293122Y0191622D01*
X0293122Y0172622D01*
X0291622Y0171122D01*
X0282122Y0167122D02*
X0282122Y0227622D01*
X0254122Y0255622D01*
X0245122Y0254622D02*
X0245122Y0277622D01*
X0245122Y0254622D02*
X0277122Y0222622D01*
X0277122Y0169622D01*
X0257122Y0149622D01*
X0257122Y0106622D01*
X0267122Y0107622D02*
X0267122Y0152122D01*
X0282122Y0167122D01*
X0301122Y0186622D02*
X0341622Y0186622D01*
X0287122Y0231622D02*
X0267622Y0251122D01*
X0284122Y0258622D02*
X0284122Y0296622D01*
X0295622Y0308122D01*
X0237622Y0310622D02*
X0237622Y0253622D01*
X0272622Y0218622D01*
X0272622Y0190122D01*
X0245122Y0162622D01*
X0245122Y0159122D01*
X0241122Y0179622D02*
X0197622Y0136122D01*
X0197622Y0123122D01*
X0185122Y0136622D02*
X0233122Y0184622D01*
X0233122Y0195122D01*
X0249122Y0211622D01*
X0141122Y0319622D01*
X0127122Y0319622D01*
X0116685Y0330059D01*
X0116685Y0333287D01*
X0146185Y0333287D02*
X0146185Y0325059D01*
X0205622Y0265622D01*
X0210122Y0265622D01*
X0210122Y0259622D01*
X0248122Y0221622D01*
X0287122Y0231622D02*
X0287122Y0126122D01*
X0214622Y0179122D02*
X0203122Y0190622D01*
X0203122Y0238622D01*
X0141559Y0300185D01*
X0114957Y0300185D01*
X0121122Y0271622D02*
X0112122Y0262622D01*
X0121122Y0271622D02*
X0162122Y0271622D01*
X0166122Y0257622D02*
X0147122Y0257622D01*
X0166122Y0257622D02*
X0192122Y0231622D01*
X0192122Y0189122D01*
X0210622Y0170622D01*
X0211122Y0170622D01*
X0198622Y0172122D02*
X0198622Y0161122D01*
X0179122Y0141622D01*
X0167622Y0141622D01*
X0177122Y0136622D02*
X0185122Y0136622D01*
X0177122Y0136622D02*
X0169122Y0128622D01*
X0169122Y0125622D01*
X0157122Y0196122D02*
X0145622Y0196122D01*
X0157122Y0196122D02*
X0186122Y0225122D01*
X0237622Y0310622D02*
X0215122Y0333122D01*
D14*
X0167622Y0141622D03*
X0169122Y0125622D03*
X0197622Y0123122D03*
X0245122Y0159122D03*
X0241122Y0179622D03*
X0211122Y0170622D03*
X0198622Y0172122D03*
X0145622Y0196122D03*
X0186122Y0225122D03*
X0147122Y0257622D03*
X0162122Y0271622D03*
X0112122Y0262622D03*
X0215122Y0333122D03*
X0245122Y0277622D03*
X0254122Y0255622D03*
X0267622Y0251122D03*
X0284122Y0258622D03*
X0295622Y0308122D03*
X0249122Y0211622D03*
X0301122Y0186622D03*
X0341622Y0186622D03*
X0287122Y0126122D03*
M02*
