G75*
%MOIN*%
%OFA0B0*%
%FSLAX25Y25*%
%IPPOS*%
%LPD*%
%AMOC8*
5,1,8,0,0,1.08239X$1,22.5*
%
%ADD10R,0.07400X0.07400*%
%ADD11C,0.07400*%
%ADD12C,0.15000*%
%ADD13C,0.01600*%
%ADD14C,0.04756*%
D10*
X0115400Y0011900D03*
X0216900Y0058400D03*
X0207900Y0128400D03*
X0294900Y0161400D03*
X0285900Y0191400D03*
X0255400Y0200900D03*
X0165400Y0200900D03*
X0080400Y0200900D03*
D11*
X0045400Y0011400D03*
X0055400Y0010400D03*
X0065400Y0011400D03*
X0075400Y0010400D03*
X0085400Y0011400D03*
X0095400Y0010400D03*
X0125400Y0010900D03*
X0135400Y0011900D03*
X0145400Y0010900D03*
X0155400Y0011900D03*
X0165400Y0010900D03*
X0175400Y0011900D03*
X0185400Y0010900D03*
X0206900Y0058400D03*
X0207900Y0068400D03*
X0217900Y0068400D03*
X0216900Y0078400D03*
X0206900Y0078400D03*
X0207900Y0088400D03*
X0217900Y0088400D03*
X0216900Y0098400D03*
X0206900Y0098400D03*
X0207900Y0108400D03*
X0217900Y0108400D03*
X0216900Y0118400D03*
X0206900Y0118400D03*
X0217900Y0128400D03*
X0284900Y0161400D03*
X0285900Y0171400D03*
X0295900Y0171400D03*
X0294900Y0181400D03*
X0284900Y0181400D03*
X0295900Y0191400D03*
X0296100Y0201400D03*
X0284700Y0201400D03*
X0245400Y0201900D03*
X0235400Y0200900D03*
X0225400Y0201900D03*
X0215400Y0200900D03*
X0205400Y0201900D03*
X0195400Y0200900D03*
X0185400Y0201900D03*
X0155400Y0201900D03*
X0145400Y0200900D03*
X0135400Y0201900D03*
X0125400Y0200900D03*
X0115400Y0201900D03*
X0105400Y0200900D03*
X0095400Y0201900D03*
X0070400Y0201900D03*
X0060400Y0200900D03*
X0050400Y0201900D03*
X0040400Y0200900D03*
X0030400Y0201900D03*
X0020400Y0200900D03*
X0010400Y0201900D03*
X0143900Y0164400D03*
X0142900Y0154400D03*
X0143900Y0144400D03*
X0142900Y0134400D03*
X0143900Y0124400D03*
X0142900Y0114400D03*
X0284700Y0031400D03*
X0296100Y0031400D03*
X0287400Y0072400D03*
X0288400Y0082400D03*
X0287400Y0092400D03*
X0288400Y0102400D03*
X0287400Y0112400D03*
D12*
X0299900Y0132400D03*
X0299400Y0051400D03*
D13*
X0237400Y0044900D02*
X0226400Y0033900D01*
X0145900Y0033900D01*
X0125400Y0013400D01*
X0125400Y0010900D01*
X0159400Y0039400D02*
X0133900Y0064900D01*
X0133900Y0138900D01*
X0109900Y0162900D01*
X0075400Y0162900D01*
X0040400Y0197900D01*
X0040400Y0200900D01*
X0070400Y0201900D02*
X0070400Y0196400D01*
X0094900Y0171900D01*
X0148400Y0171900D01*
X0162400Y0157900D01*
X0162400Y0083900D01*
X0187900Y0058400D01*
X0206900Y0058400D01*
X0216900Y0058400D02*
X0216900Y0053900D01*
X0212400Y0049400D01*
X0183900Y0049400D01*
X0142900Y0090400D01*
X0142900Y0114400D01*
X0171900Y0084900D02*
X0188400Y0068400D01*
X0207900Y0068400D01*
X0216900Y0058400D02*
X0230400Y0071900D01*
X0230400Y0076400D01*
X0237400Y0075400D02*
X0237400Y0044900D01*
X0237400Y0075400D02*
X0224400Y0088400D01*
X0217900Y0088400D01*
X0216900Y0098400D02*
X0226900Y0108400D01*
X0226900Y0111900D01*
X0220400Y0118400D01*
X0216900Y0118400D01*
X0206900Y0118400D02*
X0200900Y0118400D01*
X0195900Y0123400D01*
X0195900Y0129900D01*
X0203400Y0137400D01*
X0213400Y0137400D01*
X0201900Y0142900D02*
X0190900Y0131900D01*
X0190900Y0121400D01*
X0199900Y0112400D01*
X0203900Y0112400D01*
X0207900Y0108400D01*
X0206900Y0098400D02*
X0187900Y0117400D01*
X0187900Y0133900D01*
X0199900Y0145900D01*
X0286900Y0145900D01*
X0294900Y0153900D01*
X0294900Y0161400D01*
X0297900Y0171400D02*
X0305400Y0163900D01*
X0305400Y0159400D01*
X0288900Y0142900D01*
X0201900Y0142900D01*
X0217900Y0128400D02*
X0228900Y0139400D01*
X0290400Y0139400D01*
X0309900Y0158900D01*
X0309900Y0166400D01*
X0294900Y0181400D01*
X0295900Y0171400D02*
X0297900Y0171400D01*
X0171900Y0159400D02*
X0171900Y0084900D01*
X0167400Y0039400D02*
X0159400Y0039400D01*
X0171900Y0159400D02*
X0160400Y0170900D01*
X0160400Y0171400D01*
D14*
X0160400Y0171400D03*
X0213400Y0137400D03*
X0230400Y0076400D03*
X0167400Y0039400D03*
M02*
