%
M48
M72
T01C0.02756
T02C0.04000
T03C0.11000
%
T01
X167400Y39400
X230400Y76400
X213400Y137400
X160400Y171400
T02
X45400Y11400
X55400Y10400
X65400Y11400
X75400Y10400
X85400Y11400
X95400Y10400
X115400Y11900
X125400Y10900
X135400Y11900
X145400Y10900
X155400Y11900
X165400Y10900
X175400Y11900
X185400Y10900
X206900Y58400
X216900Y58400
X217900Y68400
X207900Y68400
X206900Y78400
X216900Y78400
X217900Y88400
X207900Y88400
X206900Y98400
X216900Y98400
X217900Y108400
X207900Y108400
X206900Y118400
X216900Y118400
X217900Y128400
X207900Y128400
X143900Y124400
X142900Y114400
X142900Y134400
X143900Y144400
X142900Y154400
X143900Y164400
X145400Y200900
X155400Y201900
X165400Y200900
X185400Y201900
X195400Y200900
X205400Y201900
X215400Y200900
X225400Y201900
X235400Y200900
X245400Y201900
X255400Y200900
X284700Y201400
X296100Y201400
X295900Y191400
X285900Y191400
X284900Y181400
X294900Y181400
X295900Y171400
X285900Y171400
X284900Y161400
X294900Y161400
X287400Y112400
X288400Y102400
X287400Y92400
X288400Y82400
X287400Y72400
X284700Y31400
X296100Y31400
X125400Y200900
X115400Y201900
X105400Y200900
X95400Y201900
X80400Y200900
X70400Y201900
X60400Y200900
X50400Y201900
X40400Y200900
X30400Y201900
X20400Y200900
X10400Y201900
X135400Y201900
T03
X299900Y132400
X299400Y51400
M30
