G75*
%MOIN*%
%OFA0B0*%
%FSLAX25Y25*%
%IPPOS*%
%LPD*%
%AMOC8*
5,1,8,0,0,1.08239X$1,22.5*
%
%ADD10R,0.08200X0.08200*%
%ADD11C,0.08200*%
%ADD12C,0.15800*%
%ADD13C,0.00800*%
%ADD14C,0.05556*%
D10*
X0115400Y0011900D03*
X0216900Y0058400D03*
X0207900Y0128400D03*
X0294900Y0161400D03*
X0285900Y0191400D03*
X0255400Y0200900D03*
X0165400Y0200900D03*
X0080400Y0200900D03*
D11*
X0045400Y0011400D03*
X0055400Y0010400D03*
X0065400Y0011400D03*
X0075400Y0010400D03*
X0085400Y0011400D03*
X0095400Y0010400D03*
X0125400Y0010900D03*
X0135400Y0011900D03*
X0145400Y0010900D03*
X0155400Y0011900D03*
X0165400Y0010900D03*
X0175400Y0011900D03*
X0185400Y0010900D03*
X0206900Y0058400D03*
X0207900Y0068400D03*
X0217900Y0068400D03*
X0216900Y0078400D03*
X0206900Y0078400D03*
X0207900Y0088400D03*
X0217900Y0088400D03*
X0216900Y0098400D03*
X0206900Y0098400D03*
X0207900Y0108400D03*
X0217900Y0108400D03*
X0216900Y0118400D03*
X0206900Y0118400D03*
X0217900Y0128400D03*
X0284900Y0161400D03*
X0285900Y0171400D03*
X0295900Y0171400D03*
X0294900Y0181400D03*
X0284900Y0181400D03*
X0295900Y0191400D03*
X0296100Y0201400D03*
X0284700Y0201400D03*
X0245400Y0201900D03*
X0235400Y0200900D03*
X0225400Y0201900D03*
X0215400Y0200900D03*
X0205400Y0201900D03*
X0195400Y0200900D03*
X0185400Y0201900D03*
X0155400Y0201900D03*
X0145400Y0200900D03*
X0135400Y0201900D03*
X0125400Y0200900D03*
X0115400Y0201900D03*
X0105400Y0200900D03*
X0095400Y0201900D03*
X0070400Y0201900D03*
X0060400Y0200900D03*
X0050400Y0201900D03*
X0040400Y0200900D03*
X0030400Y0201900D03*
X0020400Y0200900D03*
X0010400Y0201900D03*
X0143900Y0164400D03*
X0142900Y0154400D03*
X0143900Y0144400D03*
X0142900Y0134400D03*
X0143900Y0124400D03*
X0142900Y0114400D03*
X0284700Y0031400D03*
X0296100Y0031400D03*
X0287400Y0072400D03*
X0288400Y0082400D03*
X0287400Y0092400D03*
X0288400Y0102400D03*
X0287400Y0112400D03*
D12*
X0299900Y0132400D03*
X0299400Y0051400D03*
D13*
X0294768Y0043927D02*
X0290522Y0046400D01*
X0289645Y0046682D01*
X0288833Y0047116D01*
X0288112Y0047689D01*
X0287505Y0048382D01*
X0287032Y0049172D01*
X0286707Y0050033D01*
X0286543Y0050940D01*
X0286543Y0051860D01*
X0286707Y0052767D01*
X0287032Y0053628D01*
X0287505Y0054418D01*
X0288112Y0055111D01*
X0288833Y0055684D01*
X0289645Y0056118D01*
X0290522Y0056400D01*
X0293395Y0058110D01*
X0296386Y0059603D01*
X0299479Y0060872D01*
X0300998Y0060788D01*
X0302486Y0060467D01*
X0303905Y0059917D01*
X0305221Y0059152D01*
X0306401Y0058191D01*
X0307416Y0057057D01*
X0308241Y0055778D01*
X0308856Y0054385D01*
X0309245Y0052914D01*
X0309400Y0051400D01*
X0309231Y0049856D01*
X0308822Y0048358D01*
X0308184Y0046941D01*
X0307332Y0045643D01*
X0306288Y0044493D01*
X0305076Y0043521D01*
X0303728Y0042750D01*
X0302275Y0042200D01*
X0300755Y0041884D01*
X0299203Y0041809D01*
X0294768Y0043927D01*
X0294263Y0044221D02*
X0305949Y0044221D01*
X0306766Y0045020D02*
X0292892Y0045020D01*
X0291521Y0045818D02*
X0307447Y0045818D01*
X0307971Y0046617D02*
X0289849Y0046617D01*
X0288457Y0047415D02*
X0308397Y0047415D01*
X0308757Y0048214D02*
X0287652Y0048214D01*
X0287127Y0049012D02*
X0309001Y0049012D01*
X0309218Y0049811D02*
X0286791Y0049811D01*
X0286603Y0050609D02*
X0309313Y0050609D01*
X0309399Y0051408D02*
X0286543Y0051408D01*
X0286606Y0052206D02*
X0309318Y0052206D01*
X0309221Y0053005D02*
X0286797Y0053005D01*
X0287136Y0053803D02*
X0309010Y0053803D01*
X0308760Y0054602D02*
X0287666Y0054602D01*
X0288477Y0055400D02*
X0308408Y0055400D01*
X0307969Y0056199D02*
X0289897Y0056199D01*
X0291526Y0056997D02*
X0307454Y0056997D01*
X0306754Y0057796D02*
X0292867Y0057796D01*
X0294365Y0058594D02*
X0305906Y0058594D01*
X0304807Y0059393D02*
X0295964Y0059393D01*
X0297819Y0060191D02*
X0303198Y0060191D01*
X0304904Y0043423D02*
X0295824Y0043423D01*
X0297497Y0042624D02*
X0303395Y0042624D01*
X0299539Y0041826D02*
X0299169Y0041826D01*
X0299703Y0122809D02*
X0301255Y0122884D01*
X0302775Y0123200D01*
X0304228Y0123750D01*
X0305576Y0124521D01*
X0306788Y0125493D01*
X0307832Y0126643D01*
X0308684Y0127941D01*
X0309322Y0129358D01*
X0309731Y0130856D01*
X0309900Y0132400D01*
X0309745Y0133914D01*
X0309356Y0135385D01*
X0308741Y0136778D01*
X0307916Y0138057D01*
X0306901Y0139191D01*
X0305721Y0140152D01*
X0304405Y0140917D01*
X0302986Y0141467D01*
X0301498Y0141788D01*
X0299979Y0141872D01*
X0296886Y0140603D01*
X0293895Y0139110D01*
X0291022Y0137400D01*
X0290145Y0137118D01*
X0289333Y0136684D01*
X0288612Y0136111D01*
X0288005Y0135418D01*
X0287532Y0134628D01*
X0287207Y0133767D01*
X0287043Y0132860D01*
X0287043Y0131940D01*
X0287207Y0131033D01*
X0287532Y0130172D01*
X0288005Y0129382D01*
X0288612Y0128689D01*
X0289333Y0128116D01*
X0290145Y0127682D01*
X0291022Y0127400D01*
X0295268Y0124927D01*
X0299703Y0122809D01*
X0298731Y0123274D02*
X0302970Y0123274D01*
X0304791Y0124072D02*
X0297058Y0124072D01*
X0295386Y0124871D02*
X0306012Y0124871D01*
X0306948Y0125669D02*
X0293993Y0125669D01*
X0292623Y0126468D02*
X0307673Y0126468D01*
X0308241Y0127266D02*
X0291252Y0127266D01*
X0289430Y0128065D02*
X0308739Y0128065D01*
X0309099Y0128863D02*
X0288459Y0128863D01*
X0287837Y0129662D02*
X0309405Y0129662D01*
X0309623Y0130460D02*
X0287423Y0130460D01*
X0287166Y0131259D02*
X0309775Y0131259D01*
X0309862Y0132057D02*
X0287043Y0132057D01*
X0287043Y0132856D02*
X0309853Y0132856D01*
X0309772Y0133654D02*
X0287187Y0133654D01*
X0287466Y0134453D02*
X0309603Y0134453D01*
X0309391Y0135251D02*
X0287905Y0135251D01*
X0288559Y0136050D02*
X0309062Y0136050D01*
X0308695Y0136848D02*
X0289641Y0136848D01*
X0291437Y0137647D02*
X0308180Y0137647D01*
X0307568Y0138445D02*
X0292778Y0138445D01*
X0294163Y0139244D02*
X0306836Y0139244D01*
X0305856Y0140042D02*
X0295762Y0140042D01*
X0297465Y0140841D02*
X0304536Y0140841D01*
X0302187Y0141639D02*
X0299411Y0141639D01*
D14*
X0213400Y0137400D03*
X0160400Y0171400D03*
X0230400Y0076400D03*
X0167400Y0039400D03*
M02*
